<?xml version="1.0" encoding="utf-8" standalone="no"?>
<!DOCTYPE svg PUBLIC "-//W3C//DTD SVG 1.1//EN"
  "http://www.w3.org/Graphics/SVG/1.1/DTD/svg11.dtd">
<!-- Created with matplotlib (https://matplotlib.org/) -->
<svg height="345.6pt" version="1.1" viewBox="0 0 460.8 345.6" width="460.8pt" xmlns="http://www.w3.org/2000/svg" xmlns:xlink="http://www.w3.org/1999/xlink">
 <defs>
  <style type="text/css">
*{stroke-linecap:butt;stroke-linejoin:round;}
  </style>
 </defs>
 <g id="figure_1">
  <g id="patch_1">
   <path d="M 0 345.6 
L 460.8 345.6 
L 460.8 0 
L 0 0 
z
" style="fill:#ffffff;"/>
  </g>
  <g id="axes_1">
   <g id="patch_2">
    <path d="M 57.6 307.584 
L 414.72 307.584 
L 414.72 41.472 
L 57.6 41.472 
z
" style="fill:#ffffff;"/>
   </g>
   <g id="patch_3">
    <path clip-path="url(#p4ca9d00b72)" d="M 73.832727 307.584 
L 76.572428 307.584 
L 76.572428 303.669869 
L 73.832727 303.669869 
z
" style="fill:#20dfdf;"/>
   </g>
   <g id="patch_4">
    <path clip-path="url(#p4ca9d00b72)" d="M 77.257353 307.584 
L 79.997054 307.584 
L 79.997054 302.691336 
L 77.257353 302.691336 
z
" style="fill:#20dfdf;"/>
   </g>
   <g id="patch_5">
    <path clip-path="url(#p4ca9d00b72)" d="M 80.681979 307.584 
L 83.42168 307.584 
L 83.42168 304.648402 
L 80.681979 304.648402 
z
" style="fill:#20dfdf;"/>
   </g>
   <g id="patch_6">
    <path clip-path="url(#p4ca9d00b72)" d="M 84.106605 307.584 
L 86.846306 307.584 
L 86.846306 304.648402 
L 84.106605 304.648402 
z
" style="fill:#20dfdf;"/>
   </g>
   <g id="patch_7">
    <path clip-path="url(#p4ca9d00b72)" d="M 87.531231 307.584 
L 90.270932 307.584 
L 90.270932 303.669869 
L 87.531231 303.669869 
z
" style="fill:#20dfdf;"/>
   </g>
   <g id="patch_8">
    <path clip-path="url(#p4ca9d00b72)" d="M 90.955857 307.584 
L 93.695558 307.584 
L 93.695558 302.691336 
L 90.955857 302.691336 
z
" style="fill:#20dfdf;"/>
   </g>
   <g id="patch_9">
    <path clip-path="url(#p4ca9d00b72)" d="M 94.380483 307.584 
L 97.120184 307.584 
L 97.120184 298.777205 
L 94.380483 298.777205 
z
" style="fill:#20dfdf;"/>
   </g>
   <g id="patch_10">
    <path clip-path="url(#p4ca9d00b72)" d="M 97.805109 307.584 
L 100.54481 307.584 
L 100.54481 301.712803 
L 97.805109 301.712803 
z
" style="fill:#20dfdf;"/>
   </g>
   <g id="patch_11">
    <path clip-path="url(#p4ca9d00b72)" d="M 101.229735 307.584 
L 103.969436 307.584 
L 103.969436 294.863073 
L 101.229735 294.863073 
z
" style="fill:#20dfdf;"/>
   </g>
   <g id="patch_12">
    <path clip-path="url(#p4ca9d00b72)" d="M 104.654361 307.584 
L 107.394062 307.584 
L 107.394062 294.863073 
L 104.654361 294.863073 
z
" style="fill:#20dfdf;"/>
   </g>
   <g id="patch_13">
    <path clip-path="url(#p4ca9d00b72)" d="M 108.078987 307.584 
L 110.818688 307.584 
L 110.818688 293.884541 
L 108.078987 293.884541 
z
" style="fill:#20dfdf;"/>
   </g>
   <g id="patch_14">
    <path clip-path="url(#p4ca9d00b72)" d="M 111.503613 307.584 
L 114.243314 307.584 
L 114.243314 286.056278 
L 111.503613 286.056278 
z
" style="fill:#20dfdf;"/>
   </g>
   <g id="patch_15">
    <path clip-path="url(#p4ca9d00b72)" d="M 114.928239 307.584 
L 117.66794 307.584 
L 117.66794 284.099212 
L 114.928239 284.099212 
z
" style="fill:#20dfdf;"/>
   </g>
   <g id="patch_16">
    <path clip-path="url(#p4ca9d00b72)" d="M 118.352865 307.584 
L 121.092566 307.584 
L 121.092566 261.592958 
L 118.352865 261.592958 
z
" style="fill:#20dfdf;"/>
   </g>
   <g id="patch_17">
    <path clip-path="url(#p4ca9d00b72)" d="M 121.777491 307.584 
L 124.517192 307.584 
L 124.517192 270.399753 
L 121.777491 270.399753 
z
" style="fill:#20dfdf;"/>
   </g>
   <g id="patch_18">
    <path clip-path="url(#p4ca9d00b72)" d="M 125.202117 307.584 
L 127.941818 307.584 
L 127.941818 259.635892 
L 125.202117 259.635892 
z
" style="fill:#20dfdf;"/>
   </g>
   <g id="patch_19">
    <path clip-path="url(#p4ca9d00b72)" d="M 128.626743 307.584 
L 131.366444 307.584 
L 131.366444 259.635892 
L 128.626743 259.635892 
z
" style="fill:#20dfdf;"/>
   </g>
   <g id="patch_20">
    <path clip-path="url(#p4ca9d00b72)" d="M 132.051369 307.584 
L 134.79107 307.584 
L 134.79107 261.592958 
L 132.051369 261.592958 
z
" style="fill:#20dfdf;"/>
   </g>
   <g id="patch_21">
    <path clip-path="url(#p4ca9d00b72)" d="M 135.475995 307.584 
L 138.215696 307.584 
L 138.215696 246.914965 
L 135.475995 246.914965 
z
" style="fill:#20dfdf;"/>
   </g>
   <g id="patch_22">
    <path clip-path="url(#p4ca9d00b72)" d="M 138.900621 307.584 
L 141.640322 307.584 
L 141.640322 240.065236 
L 138.900621 240.065236 
z
" style="fill:#20dfdf;"/>
   </g>
   <g id="patch_23">
    <path clip-path="url(#p4ca9d00b72)" d="M 142.325247 307.584 
L 145.064948 307.584 
L 145.064948 221.473112 
L 142.325247 221.473112 
z
" style="fill:#20dfdf;"/>
   </g>
   <g id="patch_24">
    <path clip-path="url(#p4ca9d00b72)" d="M 145.749873 307.584 
L 148.489574 307.584 
L 148.489574 221.473112 
L 145.749873 221.473112 
z
" style="fill:#20dfdf;"/>
   </g>
   <g id="patch_25">
    <path clip-path="url(#p4ca9d00b72)" d="M 149.174499 307.584 
L 151.9142 307.584 
L 151.9142 212.666317 
L 149.174499 212.666317 
z
" style="fill:#20dfdf;"/>
   </g>
   <g id="patch_26">
    <path clip-path="url(#p4ca9d00b72)" d="M 152.599125 307.584 
L 155.338826 307.584 
L 155.338826 225.387243 
L 152.599125 225.387243 
z
" style="fill:#20dfdf;"/>
   </g>
   <g id="patch_27">
    <path clip-path="url(#p4ca9d00b72)" d="M 156.023751 307.584 
L 158.763452 307.584 
L 158.763452 203.859521 
L 156.023751 203.859521 
z
" style="fill:#20dfdf;"/>
   </g>
   <g id="patch_28">
    <path clip-path="url(#p4ca9d00b72)" d="M 159.448377 307.584 
L 162.188078 307.584 
L 162.188078 202.880988 
L 159.448377 202.880988 
z
" style="fill:#20dfdf;"/>
   </g>
   <g id="patch_29">
    <path clip-path="url(#p4ca9d00b72)" d="M 162.873003 307.584 
L 165.612704 307.584 
L 165.612704 193.09566 
L 162.873003 193.09566 
z
" style="fill:#20dfdf;"/>
   </g>
   <g id="patch_30">
    <path clip-path="url(#p4ca9d00b72)" d="M 166.297629 307.584 
L 169.03733 307.584 
L 169.03733 190.160062 
L 166.297629 190.160062 
z
" style="fill:#20dfdf;"/>
   </g>
   <g id="patch_31">
    <path clip-path="url(#p4ca9d00b72)" d="M 169.722255 307.584 
L 172.461956 307.584 
L 172.461956 192.117127 
L 169.722255 192.117127 
z
" style="fill:#20dfdf;"/>
   </g>
   <g id="patch_32">
    <path clip-path="url(#p4ca9d00b72)" d="M 173.146881 307.584 
L 175.886582 307.584 
L 175.886582 156.889946 
L 173.146881 156.889946 
z
" style="fill:#20dfdf;"/>
   </g>
   <g id="patch_33">
    <path clip-path="url(#p4ca9d00b72)" d="M 176.571507 307.584 
L 179.311208 307.584 
L 179.311208 196.031259 
L 176.571507 196.031259 
z
" style="fill:#20dfdf;"/>
   </g>
   <g id="patch_34">
    <path clip-path="url(#p4ca9d00b72)" d="M 179.996133 307.584 
L 182.735834 307.584 
L 182.735834 180.374734 
L 179.996133 180.374734 
z
" style="fill:#20dfdf;"/>
   </g>
   <g id="patch_35">
    <path clip-path="url(#p4ca9d00b72)" d="M 183.420759 307.584 
L 186.16046 307.584 
L 186.16046 197.988324 
L 183.420759 197.988324 
z
" style="fill:#20dfdf;"/>
   </g>
   <g id="patch_36">
    <path clip-path="url(#p4ca9d00b72)" d="M 186.845386 307.584 
L 189.585086 307.584 
L 189.585086 204.838054 
L 186.845386 204.838054 
z
" style="fill:#20dfdf;"/>
   </g>
   <g id="patch_37">
    <path clip-path="url(#p4ca9d00b72)" d="M 190.270012 307.584 
L 193.009712 307.584 
L 193.009712 202.880988 
L 190.270012 202.880988 
z
" style="fill:#20dfdf;"/>
   </g>
   <g id="patch_38">
    <path clip-path="url(#p4ca9d00b72)" d="M 193.694638 307.584 
L 196.434338 307.584 
L 196.434338 210.709251 
L 193.694638 210.709251 
z
" style="fill:#20dfdf;"/>
   </g>
   <g id="patch_39">
    <path clip-path="url(#p4ca9d00b72)" d="M 197.119264 307.584 
L 199.858964 307.584 
L 199.858964 219.516046 
L 197.119264 219.516046 
z
" style="fill:#20dfdf;"/>
   </g>
   <g id="patch_40">
    <path clip-path="url(#p4ca9d00b72)" d="M 200.54389 307.584 
L 203.28359 307.584 
L 203.28359 222.451645 
L 200.54389 222.451645 
z
" style="fill:#20dfdf;"/>
   </g>
   <g id="patch_41">
    <path clip-path="url(#p4ca9d00b72)" d="M 203.968516 307.584 
L 206.708216 307.584 
L 206.708216 230.279907 
L 203.968516 230.279907 
z
" style="fill:#20dfdf;"/>
   </g>
   <g id="patch_42">
    <path clip-path="url(#p4ca9d00b72)" d="M 207.393142 307.584 
L 210.132842 307.584 
L 210.132842 220.494579 
L 207.393142 220.494579 
z
" style="fill:#20dfdf;"/>
   </g>
   <g id="patch_43">
    <path clip-path="url(#p4ca9d00b72)" d="M 210.817768 307.584 
L 213.557468 307.584 
L 213.557468 248.872031 
L 210.817768 248.872031 
z
" style="fill:#20dfdf;"/>
   </g>
   <g id="patch_44">
    <path clip-path="url(#p4ca9d00b72)" d="M 214.242394 307.584 
L 216.982094 307.584 
L 216.982094 267.464154 
L 214.242394 267.464154 
z
" style="fill:#20dfdf;"/>
   </g>
   <g id="patch_45">
    <path clip-path="url(#p4ca9d00b72)" d="M 217.66702 307.584 
L 220.40672 307.584 
L 220.40672 262.57149 
L 217.66702 262.57149 
z
" style="fill:#20dfdf;"/>
   </g>
   <g id="patch_46">
    <path clip-path="url(#p4ca9d00b72)" d="M 221.091646 307.584 
L 223.831346 307.584 
L 223.831346 258.657359 
L 221.091646 258.657359 
z
" style="fill:#20dfdf;"/>
   </g>
   <g id="patch_47">
    <path clip-path="url(#p4ca9d00b72)" d="M 224.516272 307.584 
L 227.255972 307.584 
L 227.255972 271.378286 
L 224.516272 271.378286 
z
" style="fill:#20dfdf;"/>
   </g>
   <g id="patch_48">
    <path clip-path="url(#p4ca9d00b72)" d="M 227.940898 307.584 
L 230.680598 307.584 
L 230.680598 283.12068 
L 227.940898 283.12068 
z
" style="fill:#20dfdf;"/>
   </g>
   <g id="patch_49">
    <path clip-path="url(#p4ca9d00b72)" d="M 231.365524 307.584 
L 234.105224 307.584 
L 234.105224 275.292417 
L 231.365524 275.292417 
z
" style="fill:#20dfdf;"/>
   </g>
   <g id="patch_50">
    <path clip-path="url(#p4ca9d00b72)" d="M 234.79015 307.584 
L 237.52985 307.584 
L 237.52985 286.056278 
L 234.79015 286.056278 
z
" style="fill:#20dfdf;"/>
   </g>
   <g id="patch_51">
    <path clip-path="url(#p4ca9d00b72)" d="M 238.214776 307.584 
L 240.954476 307.584 
L 240.954476 290.948942 
L 238.214776 290.948942 
z
" style="fill:#20dfdf;"/>
   </g>
   <g id="patch_52">
    <path clip-path="url(#p4ca9d00b72)" d="M 241.639402 307.584 
L 244.379102 307.584 
L 244.379102 288.991876 
L 241.639402 288.991876 
z
" style="fill:#20dfdf;"/>
   </g>
   <g id="patch_53">
    <path clip-path="url(#p4ca9d00b72)" d="M 245.064028 307.584 
L 247.803728 307.584 
L 247.803728 296.820139 
L 245.064028 296.820139 
z
" style="fill:#20dfdf;"/>
   </g>
   <g id="patch_54">
    <path clip-path="url(#p4ca9d00b72)" d="M 248.488654 307.584 
L 251.228354 307.584 
L 251.228354 296.820139 
L 248.488654 296.820139 
z
" style="fill:#20dfdf;"/>
   </g>
   <g id="patch_55">
    <path clip-path="url(#p4ca9d00b72)" d="M 251.91328 307.584 
L 254.65298 307.584 
L 254.65298 299.755737 
L 251.91328 299.755737 
z
" style="fill:#20dfdf;"/>
   </g>
   <g id="patch_56">
    <path clip-path="url(#p4ca9d00b72)" d="M 255.337906 307.584 
L 258.077606 307.584 
L 258.077606 303.669869 
L 255.337906 303.669869 
z
" style="fill:#20dfdf;"/>
   </g>
   <g id="patch_57">
    <path clip-path="url(#p4ca9d00b72)" d="M 258.762532 307.584 
L 261.502232 307.584 
L 261.502232 300.73427 
L 258.762532 300.73427 
z
" style="fill:#20dfdf;"/>
   </g>
   <g id="patch_58">
    <path clip-path="url(#p4ca9d00b72)" d="M 262.187158 307.584 
L 264.926858 307.584 
L 264.926858 302.691336 
L 262.187158 302.691336 
z
" style="fill:#20dfdf;"/>
   </g>
   <g id="patch_59">
    <path clip-path="url(#p4ca9d00b72)" d="M 265.611784 307.584 
L 268.351484 307.584 
L 268.351484 305.626934 
L 265.611784 305.626934 
z
" style="fill:#20dfdf;"/>
   </g>
   <g id="patch_60">
    <path clip-path="url(#p4ca9d00b72)" d="M 269.03641 307.584 
L 271.77611 307.584 
L 271.77611 305.626934 
L 269.03641 305.626934 
z
" style="fill:#20dfdf;"/>
   </g>
   <g id="patch_61">
    <path clip-path="url(#p4ca9d00b72)" d="M 272.461036 307.584 
L 275.200736 307.584 
L 275.200736 305.626934 
L 272.461036 305.626934 
z
" style="fill:#20dfdf;"/>
   </g>
   <g id="patch_62">
    <path clip-path="url(#p4ca9d00b72)" d="M 275.885662 307.584 
L 278.625362 307.584 
L 278.625362 306.605467 
L 275.885662 306.605467 
z
" style="fill:#20dfdf;"/>
   </g>
   <g id="patch_63">
    <path clip-path="url(#p4ca9d00b72)" d="M 279.310288 307.584 
L 282.049988 307.584 
L 282.049988 306.605467 
L 279.310288 306.605467 
z
" style="fill:#20dfdf;"/>
   </g>
   <g id="patch_64">
    <path clip-path="url(#p4ca9d00b72)" d="M 282.734914 307.584 
L 285.474614 307.584 
L 285.474614 306.605467 
L 282.734914 306.605467 
z
" style="fill:#20dfdf;"/>
   </g>
   <g id="patch_65">
    <path clip-path="url(#p4ca9d00b72)" d="M 286.15954 307.584 
L 288.899241 307.584 
L 288.899241 303.669869 
L 286.15954 303.669869 
z
" style="fill:#20dfdf;"/>
   </g>
   <g id="patch_66">
    <path clip-path="url(#p4ca9d00b72)" d="M 289.584166 307.584 
L 292.323867 307.584 
L 292.323867 300.73427 
L 289.584166 300.73427 
z
" style="fill:#20dfdf;"/>
   </g>
   <g id="patch_67">
    <path clip-path="url(#p4ca9d00b72)" d="M 293.008792 307.584 
L 295.748493 307.584 
L 295.748493 295.841606 
L 293.008792 295.841606 
z
" style="fill:#20dfdf;"/>
   </g>
   <g id="patch_68">
    <path clip-path="url(#p4ca9d00b72)" d="M 296.433418 307.584 
L 299.173119 307.584 
L 299.173119 284.099212 
L 296.433418 284.099212 
z
" style="fill:#20dfdf;"/>
   </g>
   <g id="patch_69">
    <path clip-path="url(#p4ca9d00b72)" d="M 299.858044 307.584 
L 302.597745 307.584 
L 302.597745 283.12068 
L 299.858044 283.12068 
z
" style="fill:#20dfdf;"/>
   </g>
   <g id="patch_70">
    <path clip-path="url(#p4ca9d00b72)" d="M 303.28267 307.584 
L 306.022371 307.584 
L 306.022371 278.228015 
L 303.28267 278.228015 
z
" style="fill:#20dfdf;"/>
   </g>
   <g id="patch_71">
    <path clip-path="url(#p4ca9d00b72)" d="M 306.707296 307.584 
L 309.446997 307.584 
L 309.446997 260.614425 
L 306.707296 260.614425 
z
" style="fill:#20dfdf;"/>
   </g>
   <g id="patch_72">
    <path clip-path="url(#p4ca9d00b72)" d="M 310.131922 307.584 
L 312.871623 307.584 
L 312.871623 231.25844 
L 310.131922 231.25844 
z
" style="fill:#20dfdf;"/>
   </g>
   <g id="patch_73">
    <path clip-path="url(#p4ca9d00b72)" d="M 313.556548 307.584 
L 316.296249 307.584 
L 316.296249 217.558981 
L 313.556548 217.558981 
z
" style="fill:#20dfdf;"/>
   </g>
   <g id="patch_74">
    <path clip-path="url(#p4ca9d00b72)" d="M 316.981174 307.584 
L 319.720875 307.584 
L 319.720875 187.224463 
L 316.981174 187.224463 
z
" style="fill:#20dfdf;"/>
   </g>
   <g id="patch_75">
    <path clip-path="url(#p4ca9d00b72)" d="M 320.4058 307.584 
L 323.145501 307.584 
L 323.145501 162.761143 
L 320.4058 162.761143 
z
" style="fill:#20dfdf;"/>
   </g>
   <g id="patch_76">
    <path clip-path="url(#p4ca9d00b72)" d="M 323.830426 307.584 
L 326.570127 307.584 
L 326.570127 128.512494 
L 323.830426 128.512494 
z
" style="fill:#20dfdf;"/>
   </g>
   <g id="patch_77">
    <path clip-path="url(#p4ca9d00b72)" d="M 327.255052 307.584 
L 329.994753 307.584 
L 329.994753 80.564386 
L 327.255052 80.564386 
z
" style="fill:#20dfdf;"/>
   </g>
   <g id="patch_78">
    <path clip-path="url(#p4ca9d00b72)" d="M 330.679678 307.584 
L 333.419379 307.584 
L 333.419379 75.671722 
L 330.679678 75.671722 
z
" style="fill:#20dfdf;"/>
   </g>
   <g id="patch_79">
    <path clip-path="url(#p4ca9d00b72)" d="M 334.104304 307.584 
L 336.844005 307.584 
L 336.844005 54.144 
L 334.104304 54.144 
z
" style="fill:#20dfdf;"/>
   </g>
   <g id="patch_80">
    <path clip-path="url(#p4ca9d00b72)" d="M 337.52893 307.584 
L 340.268631 307.584 
L 340.268631 69.800525 
L 337.52893 69.800525 
z
" style="fill:#20dfdf;"/>
   </g>
   <g id="patch_81">
    <path clip-path="url(#p4ca9d00b72)" d="M 340.953556 307.584 
L 343.693257 307.584 
L 343.693257 74.693189 
L 340.953556 74.693189 
z
" style="fill:#20dfdf;"/>
   </g>
   <g id="patch_82">
    <path clip-path="url(#p4ca9d00b72)" d="M 344.378182 307.584 
L 347.117883 307.584 
L 347.117883 105.027707 
L 344.378182 105.027707 
z
" style="fill:#20dfdf;"/>
   </g>
   <g id="patch_83">
    <path clip-path="url(#p4ca9d00b72)" d="M 347.802808 307.584 
L 350.542509 307.584 
L 350.542509 120.684232 
L 347.802808 120.684232 
z
" style="fill:#20dfdf;"/>
   </g>
   <g id="patch_84">
    <path clip-path="url(#p4ca9d00b72)" d="M 351.227434 307.584 
L 353.967135 307.584 
L 353.967135 129.491027 
L 351.227434 129.491027 
z
" style="fill:#20dfdf;"/>
   </g>
   <g id="patch_85">
    <path clip-path="url(#p4ca9d00b72)" d="M 354.65206 307.584 
L 357.391761 307.584 
L 357.391761 184.288865 
L 354.65206 184.288865 
z
" style="fill:#20dfdf;"/>
   </g>
   <g id="patch_86">
    <path clip-path="url(#p4ca9d00b72)" d="M 358.076686 307.584 
L 360.816387 307.584 
L 360.816387 214.623382 
L 358.076686 214.623382 
z
" style="fill:#20dfdf;"/>
   </g>
   <g id="patch_87">
    <path clip-path="url(#p4ca9d00b72)" d="M 361.501312 307.584 
L 364.241013 307.584 
L 364.241013 232.236973 
L 361.501312 232.236973 
z
" style="fill:#20dfdf;"/>
   </g>
   <g id="patch_88">
    <path clip-path="url(#p4ca9d00b72)" d="M 364.925938 307.584 
L 367.665639 307.584 
L 367.665639 248.872031 
L 364.925938 248.872031 
z
" style="fill:#20dfdf;"/>
   </g>
   <g id="patch_89">
    <path clip-path="url(#p4ca9d00b72)" d="M 368.350564 307.584 
L 371.090265 307.584 
L 371.090265 272.356819 
L 368.350564 272.356819 
z
" style="fill:#20dfdf;"/>
   </g>
   <g id="patch_90">
    <path clip-path="url(#p4ca9d00b72)" d="M 371.77519 307.584 
L 374.514891 307.584 
L 374.514891 290.948942 
L 371.77519 290.948942 
z
" style="fill:#20dfdf;"/>
   </g>
   <g id="patch_91">
    <path clip-path="url(#p4ca9d00b72)" d="M 375.199816 307.584 
L 377.939517 307.584 
L 377.939517 289.970409 
L 375.199816 289.970409 
z
" style="fill:#20dfdf;"/>
   </g>
   <g id="patch_92">
    <path clip-path="url(#p4ca9d00b72)" d="M 378.624442 307.584 
L 381.364143 307.584 
L 381.364143 298.777205 
L 378.624442 298.777205 
z
" style="fill:#20dfdf;"/>
   </g>
   <g id="patch_93">
    <path clip-path="url(#p4ca9d00b72)" d="M 382.049068 307.584 
L 384.788769 307.584 
L 384.788769 298.777205 
L 382.049068 298.777205 
z
" style="fill:#20dfdf;"/>
   </g>
   <g id="patch_94">
    <path clip-path="url(#p4ca9d00b72)" d="M 385.473694 307.584 
L 388.213395 307.584 
L 388.213395 304.648402 
L 385.473694 304.648402 
z
" style="fill:#20dfdf;"/>
   </g>
   <g id="patch_95">
    <path clip-path="url(#p4ca9d00b72)" d="M 388.89832 307.584 
L 391.638021 307.584 
L 391.638021 305.626934 
L 388.89832 305.626934 
z
" style="fill:#20dfdf;"/>
   </g>
   <g id="patch_96">
    <path clip-path="url(#p4ca9d00b72)" d="M 392.322946 307.584 
L 395.062647 307.584 
L 395.062647 305.626934 
L 392.322946 305.626934 
z
" style="fill:#20dfdf;"/>
   </g>
   <g id="patch_97">
    <path clip-path="url(#p4ca9d00b72)" d="M 395.747572 307.584 
L 398.487273 307.584 
L 398.487273 306.605467 
L 395.747572 306.605467 
z
" style="fill:#20dfdf;"/>
   </g>
   <g id="matplotlib.axis_1">
    <g id="xtick_1">
     <g id="line2d_1">
      <defs>
       <path d="M 0 0 
L 0 3.5 
" id="mb16a55bb2d" style="stroke:#000000;stroke-width:0.8;"/>
      </defs>
      <g>
       <use style="stroke:#000000;stroke-width:0.8;" x="75.202578" xlink:href="#mb16a55bb2d" y="307.584"/>
      </g>
     </g>
     <g id="text_1">
      <!-- 0 -->
      <defs>
       <path d="M 31.78125 66.40625 
Q 24.171875 66.40625 20.328125 58.90625 
Q 16.5 51.421875 16.5 36.375 
Q 16.5 21.390625 20.328125 13.890625 
Q 24.171875 6.390625 31.78125 6.390625 
Q 39.453125 6.390625 43.28125 13.890625 
Q 47.125 21.390625 47.125 36.375 
Q 47.125 51.421875 43.28125 58.90625 
Q 39.453125 66.40625 31.78125 66.40625 
z
M 31.78125 74.21875 
Q 44.046875 74.21875 50.515625 64.515625 
Q 56.984375 54.828125 56.984375 36.375 
Q 56.984375 17.96875 50.515625 8.265625 
Q 44.046875 -1.421875 31.78125 -1.421875 
Q 19.53125 -1.421875 13.0625 8.265625 
Q 6.59375 17.96875 6.59375 36.375 
Q 6.59375 54.828125 13.0625 64.515625 
Q 19.53125 74.21875 31.78125 74.21875 
z
" id="DejaVuSans-48"/>
      </defs>
      <g transform="translate(72.021328 322.182437)scale(0.1 -0.1)">
       <use xlink:href="#DejaVuSans-48"/>
      </g>
     </g>
    </g>
    <g id="xtick_2">
     <g id="line2d_2">
      <g>
       <use style="stroke:#000000;stroke-width:0.8;" x="143.695098" xlink:href="#mb16a55bb2d" y="307.584"/>
      </g>
     </g>
     <g id="text_2">
      <!-- 20 -->
      <defs>
       <path d="M 19.1875 8.296875 
L 53.609375 8.296875 
L 53.609375 0 
L 7.328125 0 
L 7.328125 8.296875 
Q 12.9375 14.109375 22.625 23.890625 
Q 32.328125 33.6875 34.8125 36.53125 
Q 39.546875 41.84375 41.421875 45.53125 
Q 43.3125 49.21875 43.3125 52.78125 
Q 43.3125 58.59375 39.234375 62.25 
Q 35.15625 65.921875 28.609375 65.921875 
Q 23.96875 65.921875 18.8125 64.3125 
Q 13.671875 62.703125 7.8125 59.421875 
L 7.8125 69.390625 
Q 13.765625 71.78125 18.9375 73 
Q 24.125 74.21875 28.421875 74.21875 
Q 39.75 74.21875 46.484375 68.546875 
Q 53.21875 62.890625 53.21875 53.421875 
Q 53.21875 48.921875 51.53125 44.890625 
Q 49.859375 40.875 45.40625 35.40625 
Q 44.1875 33.984375 37.640625 27.21875 
Q 31.109375 20.453125 19.1875 8.296875 
z
" id="DejaVuSans-50"/>
      </defs>
      <g transform="translate(137.332598 322.182437)scale(0.1 -0.1)">
       <use xlink:href="#DejaVuSans-50"/>
       <use x="63.623047" xlink:href="#DejaVuSans-48"/>
      </g>
     </g>
    </g>
    <g id="xtick_3">
     <g id="line2d_3">
      <g>
       <use style="stroke:#000000;stroke-width:0.8;" x="212.187618" xlink:href="#mb16a55bb2d" y="307.584"/>
      </g>
     </g>
     <g id="text_3">
      <!-- 40 -->
      <defs>
       <path d="M 37.796875 64.3125 
L 12.890625 25.390625 
L 37.796875 25.390625 
z
M 35.203125 72.90625 
L 47.609375 72.90625 
L 47.609375 25.390625 
L 58.015625 25.390625 
L 58.015625 17.1875 
L 47.609375 17.1875 
L 47.609375 0 
L 37.796875 0 
L 37.796875 17.1875 
L 4.890625 17.1875 
L 4.890625 26.703125 
z
" id="DejaVuSans-52"/>
      </defs>
      <g transform="translate(205.825118 322.182437)scale(0.1 -0.1)">
       <use xlink:href="#DejaVuSans-52"/>
       <use x="63.623047" xlink:href="#DejaVuSans-48"/>
      </g>
     </g>
    </g>
    <g id="xtick_4">
     <g id="line2d_4">
      <g>
       <use style="stroke:#000000;stroke-width:0.8;" x="280.680138" xlink:href="#mb16a55bb2d" y="307.584"/>
      </g>
     </g>
     <g id="text_4">
      <!-- 60 -->
      <defs>
       <path d="M 33.015625 40.375 
Q 26.375 40.375 22.484375 35.828125 
Q 18.609375 31.296875 18.609375 23.390625 
Q 18.609375 15.53125 22.484375 10.953125 
Q 26.375 6.390625 33.015625 6.390625 
Q 39.65625 6.390625 43.53125 10.953125 
Q 47.40625 15.53125 47.40625 23.390625 
Q 47.40625 31.296875 43.53125 35.828125 
Q 39.65625 40.375 33.015625 40.375 
z
M 52.59375 71.296875 
L 52.59375 62.3125 
Q 48.875 64.0625 45.09375 64.984375 
Q 41.3125 65.921875 37.59375 65.921875 
Q 27.828125 65.921875 22.671875 59.328125 
Q 17.53125 52.734375 16.796875 39.40625 
Q 19.671875 43.65625 24.015625 45.921875 
Q 28.375 48.1875 33.59375 48.1875 
Q 44.578125 48.1875 50.953125 41.515625 
Q 57.328125 34.859375 57.328125 23.390625 
Q 57.328125 12.15625 50.6875 5.359375 
Q 44.046875 -1.421875 33.015625 -1.421875 
Q 20.359375 -1.421875 13.671875 8.265625 
Q 6.984375 17.96875 6.984375 36.375 
Q 6.984375 53.65625 15.1875 63.9375 
Q 23.390625 74.21875 37.203125 74.21875 
Q 40.921875 74.21875 44.703125 73.484375 
Q 48.484375 72.75 52.59375 71.296875 
z
" id="DejaVuSans-54"/>
      </defs>
      <g transform="translate(274.317638 322.182437)scale(0.1 -0.1)">
       <use xlink:href="#DejaVuSans-54"/>
       <use x="63.623047" xlink:href="#DejaVuSans-48"/>
      </g>
     </g>
    </g>
    <g id="xtick_5">
     <g id="line2d_5">
      <g>
       <use style="stroke:#000000;stroke-width:0.8;" x="349.172658" xlink:href="#mb16a55bb2d" y="307.584"/>
      </g>
     </g>
     <g id="text_5">
      <!-- 80 -->
      <defs>
       <path d="M 31.78125 34.625 
Q 24.75 34.625 20.71875 30.859375 
Q 16.703125 27.09375 16.703125 20.515625 
Q 16.703125 13.921875 20.71875 10.15625 
Q 24.75 6.390625 31.78125 6.390625 
Q 38.8125 6.390625 42.859375 10.171875 
Q 46.921875 13.96875 46.921875 20.515625 
Q 46.921875 27.09375 42.890625 30.859375 
Q 38.875 34.625 31.78125 34.625 
z
M 21.921875 38.8125 
Q 15.578125 40.375 12.03125 44.71875 
Q 8.5 49.078125 8.5 55.328125 
Q 8.5 64.0625 14.71875 69.140625 
Q 20.953125 74.21875 31.78125 74.21875 
Q 42.671875 74.21875 48.875 69.140625 
Q 55.078125 64.0625 55.078125 55.328125 
Q 55.078125 49.078125 51.53125 44.71875 
Q 48 40.375 41.703125 38.8125 
Q 48.828125 37.15625 52.796875 32.3125 
Q 56.78125 27.484375 56.78125 20.515625 
Q 56.78125 9.90625 50.3125 4.234375 
Q 43.84375 -1.421875 31.78125 -1.421875 
Q 19.734375 -1.421875 13.25 4.234375 
Q 6.78125 9.90625 6.78125 20.515625 
Q 6.78125 27.484375 10.78125 32.3125 
Q 14.796875 37.15625 21.921875 38.8125 
z
M 18.3125 54.390625 
Q 18.3125 48.734375 21.84375 45.5625 
Q 25.390625 42.390625 31.78125 42.390625 
Q 38.140625 42.390625 41.71875 45.5625 
Q 45.3125 48.734375 45.3125 54.390625 
Q 45.3125 60.0625 41.71875 63.234375 
Q 38.140625 66.40625 31.78125 66.40625 
Q 25.390625 66.40625 21.84375 63.234375 
Q 18.3125 60.0625 18.3125 54.390625 
z
" id="DejaVuSans-56"/>
      </defs>
      <g transform="translate(342.810158 322.182437)scale(0.1 -0.1)">
       <use xlink:href="#DejaVuSans-56"/>
       <use x="63.623047" xlink:href="#DejaVuSans-48"/>
      </g>
     </g>
    </g>
   </g>
   <g id="matplotlib.axis_2">
    <g id="ytick_1">
     <g id="line2d_6">
      <defs>
       <path d="M 0 0 
L -3.5 0 
" id="m76380d8e65" style="stroke:#000000;stroke-width:0.8;"/>
      </defs>
      <g>
       <use style="stroke:#000000;stroke-width:0.8;" x="57.6" xlink:href="#m76380d8e65" y="307.584"/>
      </g>
     </g>
     <g id="text_6">
      <!-- 0 -->
      <g transform="translate(44.2375 311.383219)scale(0.1 -0.1)">
       <use xlink:href="#DejaVuSans-48"/>
      </g>
     </g>
    </g>
    <g id="ytick_2">
     <g id="line2d_7">
      <g>
       <use style="stroke:#000000;stroke-width:0.8;" x="57.6" xlink:href="#m76380d8e65" y="258.657359"/>
      </g>
     </g>
     <g id="text_7">
      <!-- 50 -->
      <defs>
       <path d="M 10.796875 72.90625 
L 49.515625 72.90625 
L 49.515625 64.59375 
L 19.828125 64.59375 
L 19.828125 46.734375 
Q 21.96875 47.46875 24.109375 47.828125 
Q 26.265625 48.1875 28.421875 48.1875 
Q 40.625 48.1875 47.75 41.5 
Q 54.890625 34.8125 54.890625 23.390625 
Q 54.890625 11.625 47.5625 5.09375 
Q 40.234375 -1.421875 26.90625 -1.421875 
Q 22.3125 -1.421875 17.546875 -0.640625 
Q 12.796875 0.140625 7.71875 1.703125 
L 7.71875 11.625 
Q 12.109375 9.234375 16.796875 8.0625 
Q 21.484375 6.890625 26.703125 6.890625 
Q 35.15625 6.890625 40.078125 11.328125 
Q 45.015625 15.765625 45.015625 23.390625 
Q 45.015625 31 40.078125 35.4375 
Q 35.15625 39.890625 26.703125 39.890625 
Q 22.75 39.890625 18.8125 39.015625 
Q 14.890625 38.140625 10.796875 36.28125 
z
" id="DejaVuSans-53"/>
      </defs>
      <g transform="translate(37.875 262.456578)scale(0.1 -0.1)">
       <use xlink:href="#DejaVuSans-53"/>
       <use x="63.623047" xlink:href="#DejaVuSans-48"/>
      </g>
     </g>
    </g>
    <g id="ytick_3">
     <g id="line2d_8">
      <g>
       <use style="stroke:#000000;stroke-width:0.8;" x="57.6" xlink:href="#m76380d8e65" y="209.730718"/>
      </g>
     </g>
     <g id="text_8">
      <!-- 100 -->
      <defs>
       <path d="M 12.40625 8.296875 
L 28.515625 8.296875 
L 28.515625 63.921875 
L 10.984375 60.40625 
L 10.984375 69.390625 
L 28.421875 72.90625 
L 38.28125 72.90625 
L 38.28125 8.296875 
L 54.390625 8.296875 
L 54.390625 0 
L 12.40625 0 
z
" id="DejaVuSans-49"/>
      </defs>
      <g transform="translate(31.5125 213.529937)scale(0.1 -0.1)">
       <use xlink:href="#DejaVuSans-49"/>
       <use x="63.623047" xlink:href="#DejaVuSans-48"/>
       <use x="127.246094" xlink:href="#DejaVuSans-48"/>
      </g>
     </g>
    </g>
    <g id="ytick_4">
     <g id="line2d_9">
      <g>
       <use style="stroke:#000000;stroke-width:0.8;" x="57.6" xlink:href="#m76380d8e65" y="160.804077"/>
      </g>
     </g>
     <g id="text_9">
      <!-- 150 -->
      <g transform="translate(31.5125 164.603296)scale(0.1 -0.1)">
       <use xlink:href="#DejaVuSans-49"/>
       <use x="63.623047" xlink:href="#DejaVuSans-53"/>
       <use x="127.246094" xlink:href="#DejaVuSans-48"/>
      </g>
     </g>
    </g>
    <g id="ytick_5">
     <g id="line2d_10">
      <g>
       <use style="stroke:#000000;stroke-width:0.8;" x="57.6" xlink:href="#m76380d8e65" y="111.877436"/>
      </g>
     </g>
     <g id="text_10">
      <!-- 200 -->
      <g transform="translate(31.5125 115.676655)scale(0.1 -0.1)">
       <use xlink:href="#DejaVuSans-50"/>
       <use x="63.623047" xlink:href="#DejaVuSans-48"/>
       <use x="127.246094" xlink:href="#DejaVuSans-48"/>
      </g>
     </g>
    </g>
    <g id="ytick_6">
     <g id="line2d_11">
      <g>
       <use style="stroke:#000000;stroke-width:0.8;" x="57.6" xlink:href="#m76380d8e65" y="62.950795"/>
      </g>
     </g>
     <g id="text_11">
      <!-- 250 -->
      <g transform="translate(31.5125 66.750014)scale(0.1 -0.1)">
       <use xlink:href="#DejaVuSans-50"/>
       <use x="63.623047" xlink:href="#DejaVuSans-53"/>
       <use x="127.246094" xlink:href="#DejaVuSans-48"/>
      </g>
     </g>
    </g>
    <g id="text_12">
     <!-- count -->
     <defs>
      <path d="M 48.78125 52.59375 
L 48.78125 44.1875 
Q 44.96875 46.296875 41.140625 47.34375 
Q 37.3125 48.390625 33.40625 48.390625 
Q 24.65625 48.390625 19.8125 42.84375 
Q 14.984375 37.3125 14.984375 27.296875 
Q 14.984375 17.28125 19.8125 11.734375 
Q 24.65625 6.203125 33.40625 6.203125 
Q 37.3125 6.203125 41.140625 7.25 
Q 44.96875 8.296875 48.78125 10.40625 
L 48.78125 2.09375 
Q 45.015625 0.34375 40.984375 -0.53125 
Q 36.96875 -1.421875 32.421875 -1.421875 
Q 20.0625 -1.421875 12.78125 6.34375 
Q 5.515625 14.109375 5.515625 27.296875 
Q 5.515625 40.671875 12.859375 48.328125 
Q 20.21875 56 33.015625 56 
Q 37.15625 56 41.109375 55.140625 
Q 45.0625 54.296875 48.78125 52.59375 
z
" id="DejaVuSans-99"/>
      <path d="M 30.609375 48.390625 
Q 23.390625 48.390625 19.1875 42.75 
Q 14.984375 37.109375 14.984375 27.296875 
Q 14.984375 17.484375 19.15625 11.84375 
Q 23.34375 6.203125 30.609375 6.203125 
Q 37.796875 6.203125 41.984375 11.859375 
Q 46.1875 17.53125 46.1875 27.296875 
Q 46.1875 37.015625 41.984375 42.703125 
Q 37.796875 48.390625 30.609375 48.390625 
z
M 30.609375 56 
Q 42.328125 56 49.015625 48.375 
Q 55.71875 40.765625 55.71875 27.296875 
Q 55.71875 13.875 49.015625 6.21875 
Q 42.328125 -1.421875 30.609375 -1.421875 
Q 18.84375 -1.421875 12.171875 6.21875 
Q 5.515625 13.875 5.515625 27.296875 
Q 5.515625 40.765625 12.171875 48.375 
Q 18.84375 56 30.609375 56 
z
" id="DejaVuSans-111"/>
      <path d="M 8.5 21.578125 
L 8.5 54.6875 
L 17.484375 54.6875 
L 17.484375 21.921875 
Q 17.484375 14.15625 20.5 10.265625 
Q 23.53125 6.390625 29.59375 6.390625 
Q 36.859375 6.390625 41.078125 11.03125 
Q 45.3125 15.671875 45.3125 23.6875 
L 45.3125 54.6875 
L 54.296875 54.6875 
L 54.296875 0 
L 45.3125 0 
L 45.3125 8.40625 
Q 42.046875 3.421875 37.71875 1 
Q 33.40625 -1.421875 27.6875 -1.421875 
Q 18.265625 -1.421875 13.375 4.4375 
Q 8.5 10.296875 8.5 21.578125 
z
M 31.109375 56 
z
" id="DejaVuSans-117"/>
      <path d="M 54.890625 33.015625 
L 54.890625 0 
L 45.90625 0 
L 45.90625 32.71875 
Q 45.90625 40.484375 42.875 44.328125 
Q 39.84375 48.1875 33.796875 48.1875 
Q 26.515625 48.1875 22.3125 43.546875 
Q 18.109375 38.921875 18.109375 30.90625 
L 18.109375 0 
L 9.078125 0 
L 9.078125 54.6875 
L 18.109375 54.6875 
L 18.109375 46.1875 
Q 21.34375 51.125 25.703125 53.5625 
Q 30.078125 56 35.796875 56 
Q 45.21875 56 50.046875 50.171875 
Q 54.890625 44.34375 54.890625 33.015625 
z
" id="DejaVuSans-110"/>
      <path d="M 18.3125 70.21875 
L 18.3125 54.6875 
L 36.8125 54.6875 
L 36.8125 47.703125 
L 18.3125 47.703125 
L 18.3125 18.015625 
Q 18.3125 11.328125 20.140625 9.421875 
Q 21.96875 7.515625 27.59375 7.515625 
L 36.8125 7.515625 
L 36.8125 0 
L 27.59375 0 
Q 17.1875 0 13.234375 3.875 
Q 9.28125 7.765625 9.28125 18.015625 
L 9.28125 47.703125 
L 2.6875 47.703125 
L 2.6875 54.6875 
L 9.28125 54.6875 
L 9.28125 70.21875 
z
" id="DejaVuSans-116"/>
     </defs>
     <g transform="translate(25.432812 188.63425)rotate(-90)scale(0.1 -0.1)">
      <use xlink:href="#DejaVuSans-99"/>
      <use x="54.980469" xlink:href="#DejaVuSans-111"/>
      <use x="116.162109" xlink:href="#DejaVuSans-117"/>
      <use x="179.541016" xlink:href="#DejaVuSans-110"/>
      <use x="242.919922" xlink:href="#DejaVuSans-116"/>
     </g>
    </g>
   </g>
   <g id="patch_98">
    <path d="M 57.6 307.584 
L 57.6 41.472 
" style="fill:none;stroke:#000000;stroke-linecap:square;stroke-linejoin:miter;stroke-width:0.8;"/>
   </g>
   <g id="patch_99">
    <path d="M 414.72 307.584 
L 414.72 41.472 
" style="fill:none;stroke:#000000;stroke-linecap:square;stroke-linejoin:miter;stroke-width:0.8;"/>
   </g>
   <g id="patch_100">
    <path d="M 57.6 307.584 
L 414.72 307.584 
" style="fill:none;stroke:#000000;stroke-linecap:square;stroke-linejoin:miter;stroke-width:0.8;"/>
   </g>
   <g id="patch_101">
    <path d="M 57.6 41.472 
L 414.72 41.472 
" style="fill:none;stroke:#000000;stroke-linecap:square;stroke-linejoin:miter;stroke-width:0.8;"/>
   </g>
   <g id="text_13">
    <!-- Data -->
    <defs>
     <path d="M 19.671875 64.796875 
L 19.671875 8.109375 
L 31.59375 8.109375 
Q 46.6875 8.109375 53.6875 14.9375 
Q 60.6875 21.78125 60.6875 36.53125 
Q 60.6875 51.171875 53.6875 57.984375 
Q 46.6875 64.796875 31.59375 64.796875 
z
M 9.8125 72.90625 
L 30.078125 72.90625 
Q 51.265625 72.90625 61.171875 64.09375 
Q 71.09375 55.28125 71.09375 36.53125 
Q 71.09375 17.671875 61.125 8.828125 
Q 51.171875 0 30.078125 0 
L 9.8125 0 
z
" id="DejaVuSans-68"/>
     <path d="M 34.28125 27.484375 
Q 23.390625 27.484375 19.1875 25 
Q 14.984375 22.515625 14.984375 16.5 
Q 14.984375 11.71875 18.140625 8.90625 
Q 21.296875 6.109375 26.703125 6.109375 
Q 34.1875 6.109375 38.703125 11.40625 
Q 43.21875 16.703125 43.21875 25.484375 
L 43.21875 27.484375 
z
M 52.203125 31.203125 
L 52.203125 0 
L 43.21875 0 
L 43.21875 8.296875 
Q 40.140625 3.328125 35.546875 0.953125 
Q 30.953125 -1.421875 24.3125 -1.421875 
Q 15.921875 -1.421875 10.953125 3.296875 
Q 6 8.015625 6 15.921875 
Q 6 25.140625 12.171875 29.828125 
Q 18.359375 34.515625 30.609375 34.515625 
L 43.21875 34.515625 
L 43.21875 35.40625 
Q 43.21875 41.609375 39.140625 45 
Q 35.0625 48.390625 27.6875 48.390625 
Q 23 48.390625 18.546875 47.265625 
Q 14.109375 46.140625 10.015625 43.890625 
L 10.015625 52.203125 
Q 14.9375 54.109375 19.578125 55.046875 
Q 24.21875 56 28.609375 56 
Q 40.484375 56 46.34375 49.84375 
Q 52.203125 43.703125 52.203125 31.203125 
z
" id="DejaVuSans-97"/>
    </defs>
    <g transform="translate(221.834062 35.472)scale(0.12 -0.12)">
     <use xlink:href="#DejaVuSans-68"/>
     <use x="77.001953" xlink:href="#DejaVuSans-97"/>
     <use x="138.28125" xlink:href="#DejaVuSans-116"/>
     <use x="177.490234" xlink:href="#DejaVuSans-97"/>
    </g>
   </g>
  </g>
 </g>
 <defs>
  <clipPath id="p4ca9d00b72">
   <rect height="266.112" width="357.12" x="57.6" y="41.472"/>
  </clipPath>
 </defs>
</svg>
