<?xml version="1.0" encoding="utf-8" standalone="no"?>
<!DOCTYPE svg PUBLIC "-//W3C//DTD SVG 1.1//EN"
  "http://www.w3.org/Graphics/SVG/1.1/DTD/svg11.dtd">
<!-- Created with matplotlib (https://matplotlib.org/) -->
<svg height="345.6pt" version="1.1" viewBox="0 0 460.8 345.6" width="460.8pt" xmlns="http://www.w3.org/2000/svg" xmlns:xlink="http://www.w3.org/1999/xlink">
 <defs>
  <style type="text/css">
*{stroke-linecap:butt;stroke-linejoin:round;}
  </style>
 </defs>
 <g id="figure_1">
  <g id="patch_1">
   <path d="M 0 345.6 
L 460.8 345.6 
L 460.8 0 
L 0 0 
z
" style="fill:#ffffff;"/>
  </g>
  <g id="axes_1">
   <g id="patch_2">
    <path d="M 57.6 307.584 
L 414.72 307.584 
L 414.72 41.472 
L 57.6 41.472 
z
" style="fill:#ffffff;"/>
   </g>
   <g id="patch_3">
    <path clip-path="url(#pd7763edb19)" d="M 73.832727 307.584 
L 77.214545 307.584 
L 77.214545 302.304 
L 73.832727 302.304 
z
" style="fill:#20dfdf;"/>
   </g>
   <g id="patch_4">
    <path clip-path="url(#pd7763edb19)" d="M 78.06 307.584 
L 81.441818 307.584 
L 81.441818 297.024 
L 78.06 297.024 
z
" style="fill:#20dfdf;"/>
   </g>
   <g id="patch_5">
    <path clip-path="url(#pd7763edb19)" d="M 82.287273 307.584 
L 85.669091 307.584 
L 85.669091 291.744 
L 82.287273 291.744 
z
" style="fill:#20dfdf;"/>
   </g>
   <g id="patch_6">
    <path clip-path="url(#pd7763edb19)" d="M 86.514545 307.584 
L 89.896364 307.584 
L 89.896364 297.024 
L 86.514545 297.024 
z
" style="fill:#20dfdf;"/>
   </g>
   <g id="patch_7">
    <path clip-path="url(#pd7763edb19)" d="M 90.741818 307.584 
L 94.123636 307.584 
L 94.123636 302.304 
L 90.741818 302.304 
z
" style="fill:#20dfdf;"/>
   </g>
   <g id="patch_8">
    <path clip-path="url(#pd7763edb19)" d="M 94.969091 307.584 
L 98.350909 307.584 
L 98.350909 281.184 
L 94.969091 281.184 
z
" style="fill:#20dfdf;"/>
   </g>
   <g id="patch_9">
    <path clip-path="url(#pd7763edb19)" d="M 99.196364 307.584 
L 102.578182 307.584 
L 102.578182 228.384 
L 99.196364 228.384 
z
" style="fill:#20dfdf;"/>
   </g>
   <g id="patch_10">
    <path clip-path="url(#pd7763edb19)" d="M 103.423636 307.584 
L 106.805455 307.584 
L 106.805455 275.904 
L 103.423636 275.904 
z
" style="fill:#20dfdf;"/>
   </g>
   <g id="patch_11">
    <path clip-path="url(#pd7763edb19)" d="M 107.650909 307.584 
L 111.032727 307.584 
L 111.032727 281.184 
L 107.650909 281.184 
z
" style="fill:#20dfdf;"/>
   </g>
   <g id="patch_12">
    <path clip-path="url(#pd7763edb19)" d="M 111.878182 307.584 
L 115.26 307.584 
L 115.26 254.784 
L 111.878182 254.784 
z
" style="fill:#20dfdf;"/>
   </g>
   <g id="patch_13">
    <path clip-path="url(#pd7763edb19)" d="M 116.105455 307.584 
L 119.487273 307.584 
L 119.487273 254.784 
L 116.105455 254.784 
z
" style="fill:#20dfdf;"/>
   </g>
   <g id="patch_14">
    <path clip-path="url(#pd7763edb19)" d="M 120.332727 307.584 
L 123.714545 307.584 
L 123.714545 217.824 
L 120.332727 217.824 
z
" style="fill:#20dfdf;"/>
   </g>
   <g id="patch_15">
    <path clip-path="url(#pd7763edb19)" d="M 124.56 307.584 
L 127.941818 307.584 
L 127.941818 254.784 
L 124.56 254.784 
z
" style="fill:#20dfdf;"/>
   </g>
   <g id="patch_16">
    <path clip-path="url(#pd7763edb19)" d="M 128.787273 307.584 
L 132.169091 307.584 
L 132.169091 233.664 
L 128.787273 233.664 
z
" style="fill:#20dfdf;"/>
   </g>
   <g id="patch_17">
    <path clip-path="url(#pd7763edb19)" d="M 133.014545 307.584 
L 136.396364 307.584 
L 136.396364 207.264 
L 133.014545 207.264 
z
" style="fill:#20dfdf;"/>
   </g>
   <g id="patch_18">
    <path clip-path="url(#pd7763edb19)" d="M 137.241818 307.584 
L 140.623636 307.584 
L 140.623636 233.664 
L 137.241818 233.664 
z
" style="fill:#20dfdf;"/>
   </g>
   <g id="patch_19">
    <path clip-path="url(#pd7763edb19)" d="M 141.469091 307.584 
L 144.850909 307.584 
L 144.850909 244.224 
L 141.469091 244.224 
z
" style="fill:#20dfdf;"/>
   </g>
   <g id="patch_20">
    <path clip-path="url(#pd7763edb19)" d="M 145.696364 307.584 
L 149.078182 307.584 
L 149.078182 228.384 
L 145.696364 228.384 
z
" style="fill:#20dfdf;"/>
   </g>
   <g id="patch_21">
    <path clip-path="url(#pd7763edb19)" d="M 149.923636 307.584 
L 153.305455 307.584 
L 153.305455 233.664 
L 149.923636 233.664 
z
" style="fill:#20dfdf;"/>
   </g>
   <g id="patch_22">
    <path clip-path="url(#pd7763edb19)" d="M 154.150909 307.584 
L 157.532727 307.584 
L 157.532727 170.304 
L 154.150909 170.304 
z
" style="fill:#20dfdf;"/>
   </g>
   <g id="patch_23">
    <path clip-path="url(#pd7763edb19)" d="M 158.378182 307.584 
L 161.76 307.584 
L 161.76 207.264 
L 158.378182 207.264 
z
" style="fill:#20dfdf;"/>
   </g>
   <g id="patch_24">
    <path clip-path="url(#pd7763edb19)" d="M 162.605455 307.584 
L 165.987273 307.584 
L 165.987273 191.424 
L 162.605455 191.424 
z
" style="fill:#20dfdf;"/>
   </g>
   <g id="patch_25">
    <path clip-path="url(#pd7763edb19)" d="M 166.832727 307.584 
L 170.214545 307.584 
L 170.214545 117.504 
L 166.832727 117.504 
z
" style="fill:#20dfdf;"/>
   </g>
   <g id="patch_26">
    <path clip-path="url(#pd7763edb19)" d="M 171.06 307.584 
L 174.441818 307.584 
L 174.441818 244.224 
L 171.06 244.224 
z
" style="fill:#20dfdf;"/>
   </g>
   <g id="patch_27">
    <path clip-path="url(#pd7763edb19)" d="M 175.287273 307.584 
L 178.669091 307.584 
L 178.669091 228.384 
L 175.287273 228.384 
z
" style="fill:#20dfdf;"/>
   </g>
   <g id="patch_28">
    <path clip-path="url(#pd7763edb19)" d="M 179.514545 307.584 
L 182.896364 307.584 
L 182.896364 260.064 
L 179.514545 260.064 
z
" style="fill:#20dfdf;"/>
   </g>
   <g id="patch_29">
    <path clip-path="url(#pd7763edb19)" d="M 183.741818 307.584 
L 187.123636 307.584 
L 187.123636 233.664 
L 183.741818 233.664 
z
" style="fill:#20dfdf;"/>
   </g>
   <g id="patch_30">
    <path clip-path="url(#pd7763edb19)" d="M 187.969091 307.584 
L 191.350909 307.584 
L 191.350909 191.424 
L 187.969091 191.424 
z
" style="fill:#20dfdf;"/>
   </g>
   <g id="patch_31">
    <path clip-path="url(#pd7763edb19)" d="M 192.196364 307.584 
L 195.578182 307.584 
L 195.578182 223.104 
L 192.196364 223.104 
z
" style="fill:#20dfdf;"/>
   </g>
   <g id="patch_32">
    <path clip-path="url(#pd7763edb19)" d="M 196.423636 307.584 
L 199.805455 307.584 
L 199.805455 244.224 
L 196.423636 244.224 
z
" style="fill:#20dfdf;"/>
   </g>
   <g id="patch_33">
    <path clip-path="url(#pd7763edb19)" d="M 200.650909 307.584 
L 204.032727 307.584 
L 204.032727 223.104 
L 200.650909 223.104 
z
" style="fill:#20dfdf;"/>
   </g>
   <g id="patch_34">
    <path clip-path="url(#pd7763edb19)" d="M 204.878182 307.584 
L 208.26 307.584 
L 208.26 207.264 
L 204.878182 207.264 
z
" style="fill:#20dfdf;"/>
   </g>
   <g id="patch_35">
    <path clip-path="url(#pd7763edb19)" d="M 209.105455 307.584 
L 212.487273 307.584 
L 212.487273 217.824 
L 209.105455 217.824 
z
" style="fill:#20dfdf;"/>
   </g>
   <g id="patch_36">
    <path clip-path="url(#pd7763edb19)" d="M 213.332727 307.584 
L 216.714545 307.584 
L 216.714545 254.784 
L 213.332727 254.784 
z
" style="fill:#20dfdf;"/>
   </g>
   <g id="patch_37">
    <path clip-path="url(#pd7763edb19)" d="M 217.56 307.584 
L 220.941818 307.584 
L 220.941818 275.904 
L 217.56 275.904 
z
" style="fill:#20dfdf;"/>
   </g>
   <g id="patch_38">
    <path clip-path="url(#pd7763edb19)" d="M 221.787273 307.584 
L 225.169091 307.584 
L 225.169091 270.624 
L 221.787273 270.624 
z
" style="fill:#20dfdf;"/>
   </g>
   <g id="patch_39">
    <path clip-path="url(#pd7763edb19)" d="M 226.014545 307.584 
L 229.396364 307.584 
L 229.396364 286.464 
L 226.014545 286.464 
z
" style="fill:#20dfdf;"/>
   </g>
   <g id="patch_40">
    <path clip-path="url(#pd7763edb19)" d="M 230.241818 307.584 
L 233.623636 307.584 
L 233.623636 265.344 
L 230.241818 265.344 
z
" style="fill:#20dfdf;"/>
   </g>
   <g id="patch_41">
    <path clip-path="url(#pd7763edb19)" d="M 234.469091 307.584 
L 237.850909 307.584 
L 237.850909 302.304 
L 234.469091 302.304 
z
" style="fill:#20dfdf;"/>
   </g>
   <g id="patch_42">
    <path clip-path="url(#pd7763edb19)" d="M 238.696364 307.584 
L 242.078182 307.584 
L 242.078182 275.904 
L 238.696364 275.904 
z
" style="fill:#20dfdf;"/>
   </g>
   <g id="patch_43">
    <path clip-path="url(#pd7763edb19)" d="M 242.923636 307.584 
L 246.305455 307.584 
L 246.305455 291.744 
L 242.923636 291.744 
z
" style="fill:#20dfdf;"/>
   </g>
   <g id="patch_44">
    <path clip-path="url(#pd7763edb19)" d="M 247.150909 307.584 
L 250.532727 307.584 
L 250.532727 281.184 
L 247.150909 281.184 
z
" style="fill:#20dfdf;"/>
   </g>
   <g id="patch_45">
    <path clip-path="url(#pd7763edb19)" d="M 251.378182 307.584 
L 254.76 307.584 
L 254.76 297.024 
L 251.378182 297.024 
z
" style="fill:#20dfdf;"/>
   </g>
   <g id="patch_46">
    <path clip-path="url(#pd7763edb19)" d="M 255.605455 307.584 
L 258.987273 307.584 
L 258.987273 291.744 
L 255.605455 291.744 
z
" style="fill:#20dfdf;"/>
   </g>
   <g id="patch_47">
    <path clip-path="url(#pd7763edb19)" d="M 259.832727 307.584 
L 263.214545 307.584 
L 263.214545 302.304 
L 259.832727 302.304 
z
" style="fill:#20dfdf;"/>
   </g>
   <g id="patch_48">
    <path clip-path="url(#pd7763edb19)" d="M 264.06 307.584 
L 267.441818 307.584 
L 267.441818 302.304 
L 264.06 302.304 
z
" style="fill:#20dfdf;"/>
   </g>
   <g id="patch_49">
    <path clip-path="url(#pd7763edb19)" d="M 268.287273 307.584 
L 271.669091 307.584 
L 271.669091 302.304 
L 268.287273 302.304 
z
" style="fill:#20dfdf;"/>
   </g>
   <g id="patch_50">
    <path clip-path="url(#pd7763edb19)" d="M 272.514545 307.584 
L 275.896364 307.584 
L 275.896364 302.304 
L 272.514545 302.304 
z
" style="fill:#20dfdf;"/>
   </g>
   <g id="patch_51">
    <path clip-path="url(#pd7763edb19)" d="M 276.741818 307.584 
L 280.123636 307.584 
L 280.123636 302.304 
L 276.741818 302.304 
z
" style="fill:#20dfdf;"/>
   </g>
   <g id="patch_52">
    <path clip-path="url(#pd7763edb19)" d="M 280.969091 307.584 
L 284.350909 307.584 
L 284.350909 297.024 
L 280.969091 297.024 
z
" style="fill:#20dfdf;"/>
   </g>
   <g id="patch_53">
    <path clip-path="url(#pd7763edb19)" d="M 285.196364 307.584 
L 288.578182 307.584 
L 288.578182 286.464 
L 285.196364 286.464 
z
" style="fill:#20dfdf;"/>
   </g>
   <g id="patch_54">
    <path clip-path="url(#pd7763edb19)" d="M 289.423636 307.584 
L 292.805455 307.584 
L 292.805455 286.464 
L 289.423636 286.464 
z
" style="fill:#20dfdf;"/>
   </g>
   <g id="patch_55">
    <path clip-path="url(#pd7763edb19)" d="M 293.650909 307.584 
L 297.032727 307.584 
L 297.032727 291.744 
L 293.650909 291.744 
z
" style="fill:#20dfdf;"/>
   </g>
   <g id="patch_56">
    <path clip-path="url(#pd7763edb19)" d="M 297.878182 307.584 
L 301.26 307.584 
L 301.26 291.744 
L 297.878182 291.744 
z
" style="fill:#20dfdf;"/>
   </g>
   <g id="patch_57">
    <path clip-path="url(#pd7763edb19)" d="M 302.105455 307.584 
L 305.487273 307.584 
L 305.487273 233.664 
L 302.105455 233.664 
z
" style="fill:#20dfdf;"/>
   </g>
   <g id="patch_58">
    <path clip-path="url(#pd7763edb19)" d="M 306.332727 307.584 
L 309.714545 307.584 
L 309.714545 244.224 
L 306.332727 244.224 
z
" style="fill:#20dfdf;"/>
   </g>
   <g id="patch_59">
    <path clip-path="url(#pd7763edb19)" d="M 310.56 307.584 
L 313.941818 307.584 
L 313.941818 180.864 
L 310.56 180.864 
z
" style="fill:#20dfdf;"/>
   </g>
   <g id="patch_60">
    <path clip-path="url(#pd7763edb19)" d="M 314.787273 307.584 
L 318.169091 307.584 
L 318.169091 143.904 
L 314.787273 143.904 
z
" style="fill:#20dfdf;"/>
   </g>
   <g id="patch_61">
    <path clip-path="url(#pd7763edb19)" d="M 319.014545 307.584 
L 322.396364 307.584 
L 322.396364 149.184 
L 319.014545 149.184 
z
" style="fill:#20dfdf;"/>
   </g>
   <g id="patch_62">
    <path clip-path="url(#pd7763edb19)" d="M 323.241818 307.584 
L 326.623636 307.584 
L 326.623636 96.384 
L 323.241818 96.384 
z
" style="fill:#20dfdf;"/>
   </g>
   <g id="patch_63">
    <path clip-path="url(#pd7763edb19)" d="M 327.469091 307.584 
L 330.850909 307.584 
L 330.850909 133.344 
L 327.469091 133.344 
z
" style="fill:#20dfdf;"/>
   </g>
   <g id="patch_64">
    <path clip-path="url(#pd7763edb19)" d="M 331.696364 307.584 
L 335.078182 307.584 
L 335.078182 106.944 
L 331.696364 106.944 
z
" style="fill:#20dfdf;"/>
   </g>
   <g id="patch_65">
    <path clip-path="url(#pd7763edb19)" d="M 335.923636 307.584 
L 339.305455 307.584 
L 339.305455 106.944 
L 335.923636 106.944 
z
" style="fill:#20dfdf;"/>
   </g>
   <g id="patch_66">
    <path clip-path="url(#pd7763edb19)" d="M 340.150909 307.584 
L 343.532727 307.584 
L 343.532727 138.624 
L 340.150909 138.624 
z
" style="fill:#20dfdf;"/>
   </g>
   <g id="patch_67">
    <path clip-path="url(#pd7763edb19)" d="M 344.378182 307.584 
L 347.76 307.584 
L 347.76 54.144 
L 344.378182 54.144 
z
" style="fill:#20dfdf;"/>
   </g>
   <g id="patch_68">
    <path clip-path="url(#pd7763edb19)" d="M 348.605455 307.584 
L 351.987273 307.584 
L 351.987273 128.064 
L 348.605455 128.064 
z
" style="fill:#20dfdf;"/>
   </g>
   <g id="patch_69">
    <path clip-path="url(#pd7763edb19)" d="M 352.832727 307.584 
L 356.214545 307.584 
L 356.214545 138.624 
L 352.832727 138.624 
z
" style="fill:#20dfdf;"/>
   </g>
   <g id="patch_70">
    <path clip-path="url(#pd7763edb19)" d="M 357.06 307.584 
L 360.441818 307.584 
L 360.441818 154.464 
L 357.06 154.464 
z
" style="fill:#20dfdf;"/>
   </g>
   <g id="patch_71">
    <path clip-path="url(#pd7763edb19)" d="M 361.287273 307.584 
L 364.669091 307.584 
L 364.669091 196.704 
L 361.287273 196.704 
z
" style="fill:#20dfdf;"/>
   </g>
   <g id="patch_72">
    <path clip-path="url(#pd7763edb19)" d="M 365.514545 307.584 
L 368.896364 307.584 
L 368.896364 238.944 
L 365.514545 238.944 
z
" style="fill:#20dfdf;"/>
   </g>
   <g id="patch_73">
    <path clip-path="url(#pd7763edb19)" d="M 369.741818 307.584 
L 373.123636 307.584 
L 373.123636 233.664 
L 369.741818 233.664 
z
" style="fill:#20dfdf;"/>
   </g>
   <g id="patch_74">
    <path clip-path="url(#pd7763edb19)" d="M 373.969091 307.584 
L 377.350909 307.584 
L 377.350909 291.744 
L 373.969091 291.744 
z
" style="fill:#20dfdf;"/>
   </g>
   <g id="patch_75">
    <path clip-path="url(#pd7763edb19)" d="M 378.196364 307.584 
L 381.578182 307.584 
L 381.578182 286.464 
L 378.196364 286.464 
z
" style="fill:#20dfdf;"/>
   </g>
   <g id="patch_76">
    <path clip-path="url(#pd7763edb19)" d="M 382.423636 307.584 
L 385.805455 307.584 
L 385.805455 302.304 
L 382.423636 302.304 
z
" style="fill:#20dfdf;"/>
   </g>
   <g id="patch_77">
    <path clip-path="url(#pd7763edb19)" d="M 386.650909 307.584 
L 390.032727 307.584 
L 390.032727 302.304 
L 386.650909 302.304 
z
" style="fill:#20dfdf;"/>
   </g>
   <g id="patch_78">
    <path clip-path="url(#pd7763edb19)" d="M 390.878182 307.584 
L 394.26 307.584 
L 394.26 302.304 
L 390.878182 302.304 
z
" style="fill:#20dfdf;"/>
   </g>
   <g id="patch_79">
    <path clip-path="url(#pd7763edb19)" d="M 395.105455 307.584 
L 398.487273 307.584 
L 398.487273 302.304 
L 395.105455 302.304 
z
" style="fill:#20dfdf;"/>
   </g>
   <g id="matplotlib.axis_1">
    <g id="xtick_1">
     <g id="line2d_1">
      <defs>
       <path d="M 0 0 
L 0 3.5 
" id="m94b856752a" style="stroke:#000000;stroke-width:0.8;"/>
      </defs>
      <g>
       <use style="stroke:#000000;stroke-width:0.8;" x="75.523636" xlink:href="#m94b856752a" y="307.584"/>
      </g>
     </g>
     <g id="text_1">
      <!-- 0 -->
      <defs>
       <path d="M 31.78125 66.40625 
Q 24.171875 66.40625 20.328125 58.90625 
Q 16.5 51.421875 16.5 36.375 
Q 16.5 21.390625 20.328125 13.890625 
Q 24.171875 6.390625 31.78125 6.390625 
Q 39.453125 6.390625 43.28125 13.890625 
Q 47.125 21.390625 47.125 36.375 
Q 47.125 51.421875 43.28125 58.90625 
Q 39.453125 66.40625 31.78125 66.40625 
z
M 31.78125 74.21875 
Q 44.046875 74.21875 50.515625 64.515625 
Q 56.984375 54.828125 56.984375 36.375 
Q 56.984375 17.96875 50.515625 8.265625 
Q 44.046875 -1.421875 31.78125 -1.421875 
Q 19.53125 -1.421875 13.0625 8.265625 
Q 6.59375 17.96875 6.59375 36.375 
Q 6.59375 54.828125 13.0625 64.515625 
Q 19.53125 74.21875 31.78125 74.21875 
z
" id="DejaVuSans-48"/>
      </defs>
      <g transform="translate(72.342386 322.182437)scale(0.1 -0.1)">
       <use xlink:href="#DejaVuSans-48"/>
      </g>
     </g>
    </g>
    <g id="xtick_2">
     <g id="line2d_2">
      <g>
       <use style="stroke:#000000;stroke-width:0.8;" x="117.796364" xlink:href="#m94b856752a" y="307.584"/>
      </g>
     </g>
     <g id="text_2">
      <!-- 10 -->
      <defs>
       <path d="M 12.40625 8.296875 
L 28.515625 8.296875 
L 28.515625 63.921875 
L 10.984375 60.40625 
L 10.984375 69.390625 
L 28.421875 72.90625 
L 38.28125 72.90625 
L 38.28125 8.296875 
L 54.390625 8.296875 
L 54.390625 0 
L 12.40625 0 
z
" id="DejaVuSans-49"/>
      </defs>
      <g transform="translate(111.433864 322.182437)scale(0.1 -0.1)">
       <use xlink:href="#DejaVuSans-49"/>
       <use x="63.623047" xlink:href="#DejaVuSans-48"/>
      </g>
     </g>
    </g>
    <g id="xtick_3">
     <g id="line2d_3">
      <g>
       <use style="stroke:#000000;stroke-width:0.8;" x="160.069091" xlink:href="#m94b856752a" y="307.584"/>
      </g>
     </g>
     <g id="text_3">
      <!-- 20 -->
      <defs>
       <path d="M 19.1875 8.296875 
L 53.609375 8.296875 
L 53.609375 0 
L 7.328125 0 
L 7.328125 8.296875 
Q 12.9375 14.109375 22.625 23.890625 
Q 32.328125 33.6875 34.8125 36.53125 
Q 39.546875 41.84375 41.421875 45.53125 
Q 43.3125 49.21875 43.3125 52.78125 
Q 43.3125 58.59375 39.234375 62.25 
Q 35.15625 65.921875 28.609375 65.921875 
Q 23.96875 65.921875 18.8125 64.3125 
Q 13.671875 62.703125 7.8125 59.421875 
L 7.8125 69.390625 
Q 13.765625 71.78125 18.9375 73 
Q 24.125 74.21875 28.421875 74.21875 
Q 39.75 74.21875 46.484375 68.546875 
Q 53.21875 62.890625 53.21875 53.421875 
Q 53.21875 48.921875 51.53125 44.890625 
Q 49.859375 40.875 45.40625 35.40625 
Q 44.1875 33.984375 37.640625 27.21875 
Q 31.109375 20.453125 19.1875 8.296875 
z
" id="DejaVuSans-50"/>
      </defs>
      <g transform="translate(153.706591 322.182437)scale(0.1 -0.1)">
       <use xlink:href="#DejaVuSans-50"/>
       <use x="63.623047" xlink:href="#DejaVuSans-48"/>
      </g>
     </g>
    </g>
    <g id="xtick_4">
     <g id="line2d_4">
      <g>
       <use style="stroke:#000000;stroke-width:0.8;" x="202.341818" xlink:href="#m94b856752a" y="307.584"/>
      </g>
     </g>
     <g id="text_4">
      <!-- 30 -->
      <defs>
       <path d="M 40.578125 39.3125 
Q 47.65625 37.796875 51.625 33 
Q 55.609375 28.21875 55.609375 21.1875 
Q 55.609375 10.40625 48.1875 4.484375 
Q 40.765625 -1.421875 27.09375 -1.421875 
Q 22.515625 -1.421875 17.65625 -0.515625 
Q 12.796875 0.390625 7.625 2.203125 
L 7.625 11.71875 
Q 11.71875 9.328125 16.59375 8.109375 
Q 21.484375 6.890625 26.8125 6.890625 
Q 36.078125 6.890625 40.9375 10.546875 
Q 45.796875 14.203125 45.796875 21.1875 
Q 45.796875 27.640625 41.28125 31.265625 
Q 36.765625 34.90625 28.71875 34.90625 
L 20.21875 34.90625 
L 20.21875 43.015625 
L 29.109375 43.015625 
Q 36.375 43.015625 40.234375 45.921875 
Q 44.09375 48.828125 44.09375 54.296875 
Q 44.09375 59.90625 40.109375 62.90625 
Q 36.140625 65.921875 28.71875 65.921875 
Q 24.65625 65.921875 20.015625 65.03125 
Q 15.375 64.15625 9.8125 62.3125 
L 9.8125 71.09375 
Q 15.4375 72.65625 20.34375 73.4375 
Q 25.25 74.21875 29.59375 74.21875 
Q 40.828125 74.21875 47.359375 69.109375 
Q 53.90625 64.015625 53.90625 55.328125 
Q 53.90625 49.265625 50.4375 45.09375 
Q 46.96875 40.921875 40.578125 39.3125 
z
" id="DejaVuSans-51"/>
      </defs>
      <g transform="translate(195.979318 322.182437)scale(0.1 -0.1)">
       <use xlink:href="#DejaVuSans-51"/>
       <use x="63.623047" xlink:href="#DejaVuSans-48"/>
      </g>
     </g>
    </g>
    <g id="xtick_5">
     <g id="line2d_5">
      <g>
       <use style="stroke:#000000;stroke-width:0.8;" x="244.614545" xlink:href="#m94b856752a" y="307.584"/>
      </g>
     </g>
     <g id="text_5">
      <!-- 40 -->
      <defs>
       <path d="M 37.796875 64.3125 
L 12.890625 25.390625 
L 37.796875 25.390625 
z
M 35.203125 72.90625 
L 47.609375 72.90625 
L 47.609375 25.390625 
L 58.015625 25.390625 
L 58.015625 17.1875 
L 47.609375 17.1875 
L 47.609375 0 
L 37.796875 0 
L 37.796875 17.1875 
L 4.890625 17.1875 
L 4.890625 26.703125 
z
" id="DejaVuSans-52"/>
      </defs>
      <g transform="translate(238.252045 322.182437)scale(0.1 -0.1)">
       <use xlink:href="#DejaVuSans-52"/>
       <use x="63.623047" xlink:href="#DejaVuSans-48"/>
      </g>
     </g>
    </g>
    <g id="xtick_6">
     <g id="line2d_6">
      <g>
       <use style="stroke:#000000;stroke-width:0.8;" x="286.887273" xlink:href="#m94b856752a" y="307.584"/>
      </g>
     </g>
     <g id="text_6">
      <!-- 50 -->
      <defs>
       <path d="M 10.796875 72.90625 
L 49.515625 72.90625 
L 49.515625 64.59375 
L 19.828125 64.59375 
L 19.828125 46.734375 
Q 21.96875 47.46875 24.109375 47.828125 
Q 26.265625 48.1875 28.421875 48.1875 
Q 40.625 48.1875 47.75 41.5 
Q 54.890625 34.8125 54.890625 23.390625 
Q 54.890625 11.625 47.5625 5.09375 
Q 40.234375 -1.421875 26.90625 -1.421875 
Q 22.3125 -1.421875 17.546875 -0.640625 
Q 12.796875 0.140625 7.71875 1.703125 
L 7.71875 11.625 
Q 12.109375 9.234375 16.796875 8.0625 
Q 21.484375 6.890625 26.703125 6.890625 
Q 35.15625 6.890625 40.078125 11.328125 
Q 45.015625 15.765625 45.015625 23.390625 
Q 45.015625 31 40.078125 35.4375 
Q 35.15625 39.890625 26.703125 39.890625 
Q 22.75 39.890625 18.8125 39.015625 
Q 14.890625 38.140625 10.796875 36.28125 
z
" id="DejaVuSans-53"/>
      </defs>
      <g transform="translate(280.524773 322.182437)scale(0.1 -0.1)">
       <use xlink:href="#DejaVuSans-53"/>
       <use x="63.623047" xlink:href="#DejaVuSans-48"/>
      </g>
     </g>
    </g>
    <g id="xtick_7">
     <g id="line2d_7">
      <g>
       <use style="stroke:#000000;stroke-width:0.8;" x="329.16" xlink:href="#m94b856752a" y="307.584"/>
      </g>
     </g>
     <g id="text_7">
      <!-- 60 -->
      <defs>
       <path d="M 33.015625 40.375 
Q 26.375 40.375 22.484375 35.828125 
Q 18.609375 31.296875 18.609375 23.390625 
Q 18.609375 15.53125 22.484375 10.953125 
Q 26.375 6.390625 33.015625 6.390625 
Q 39.65625 6.390625 43.53125 10.953125 
Q 47.40625 15.53125 47.40625 23.390625 
Q 47.40625 31.296875 43.53125 35.828125 
Q 39.65625 40.375 33.015625 40.375 
z
M 52.59375 71.296875 
L 52.59375 62.3125 
Q 48.875 64.0625 45.09375 64.984375 
Q 41.3125 65.921875 37.59375 65.921875 
Q 27.828125 65.921875 22.671875 59.328125 
Q 17.53125 52.734375 16.796875 39.40625 
Q 19.671875 43.65625 24.015625 45.921875 
Q 28.375 48.1875 33.59375 48.1875 
Q 44.578125 48.1875 50.953125 41.515625 
Q 57.328125 34.859375 57.328125 23.390625 
Q 57.328125 12.15625 50.6875 5.359375 
Q 44.046875 -1.421875 33.015625 -1.421875 
Q 20.359375 -1.421875 13.671875 8.265625 
Q 6.984375 17.96875 6.984375 36.375 
Q 6.984375 53.65625 15.1875 63.9375 
Q 23.390625 74.21875 37.203125 74.21875 
Q 40.921875 74.21875 44.703125 73.484375 
Q 48.484375 72.75 52.59375 71.296875 
z
" id="DejaVuSans-54"/>
      </defs>
      <g transform="translate(322.7975 322.182437)scale(0.1 -0.1)">
       <use xlink:href="#DejaVuSans-54"/>
       <use x="63.623047" xlink:href="#DejaVuSans-48"/>
      </g>
     </g>
    </g>
    <g id="xtick_8">
     <g id="line2d_8">
      <g>
       <use style="stroke:#000000;stroke-width:0.8;" x="371.432727" xlink:href="#m94b856752a" y="307.584"/>
      </g>
     </g>
     <g id="text_8">
      <!-- 70 -->
      <defs>
       <path d="M 8.203125 72.90625 
L 55.078125 72.90625 
L 55.078125 68.703125 
L 28.609375 0 
L 18.3125 0 
L 43.21875 64.59375 
L 8.203125 64.59375 
z
" id="DejaVuSans-55"/>
      </defs>
      <g transform="translate(365.070227 322.182437)scale(0.1 -0.1)">
       <use xlink:href="#DejaVuSans-55"/>
       <use x="63.623047" xlink:href="#DejaVuSans-48"/>
      </g>
     </g>
    </g>
    <g id="xtick_9">
     <g id="line2d_9">
      <g>
       <use style="stroke:#000000;stroke-width:0.8;" x="413.705455" xlink:href="#m94b856752a" y="307.584"/>
      </g>
     </g>
     <g id="text_9">
      <!-- 80 -->
      <defs>
       <path d="M 31.78125 34.625 
Q 24.75 34.625 20.71875 30.859375 
Q 16.703125 27.09375 16.703125 20.515625 
Q 16.703125 13.921875 20.71875 10.15625 
Q 24.75 6.390625 31.78125 6.390625 
Q 38.8125 6.390625 42.859375 10.171875 
Q 46.921875 13.96875 46.921875 20.515625 
Q 46.921875 27.09375 42.890625 30.859375 
Q 38.875 34.625 31.78125 34.625 
z
M 21.921875 38.8125 
Q 15.578125 40.375 12.03125 44.71875 
Q 8.5 49.078125 8.5 55.328125 
Q 8.5 64.0625 14.71875 69.140625 
Q 20.953125 74.21875 31.78125 74.21875 
Q 42.671875 74.21875 48.875 69.140625 
Q 55.078125 64.0625 55.078125 55.328125 
Q 55.078125 49.078125 51.53125 44.71875 
Q 48 40.375 41.703125 38.8125 
Q 48.828125 37.15625 52.796875 32.3125 
Q 56.78125 27.484375 56.78125 20.515625 
Q 56.78125 9.90625 50.3125 4.234375 
Q 43.84375 -1.421875 31.78125 -1.421875 
Q 19.734375 -1.421875 13.25 4.234375 
Q 6.78125 9.90625 6.78125 20.515625 
Q 6.78125 27.484375 10.78125 32.3125 
Q 14.796875 37.15625 21.921875 38.8125 
z
M 18.3125 54.390625 
Q 18.3125 48.734375 21.84375 45.5625 
Q 25.390625 42.390625 31.78125 42.390625 
Q 38.140625 42.390625 41.71875 45.5625 
Q 45.3125 48.734375 45.3125 54.390625 
Q 45.3125 60.0625 41.71875 63.234375 
Q 38.140625 66.40625 31.78125 66.40625 
Q 25.390625 66.40625 21.84375 63.234375 
Q 18.3125 60.0625 18.3125 54.390625 
z
" id="DejaVuSans-56"/>
      </defs>
      <g transform="translate(407.342955 322.182437)scale(0.1 -0.1)">
       <use xlink:href="#DejaVuSans-56"/>
       <use x="63.623047" xlink:href="#DejaVuSans-48"/>
      </g>
     </g>
    </g>
   </g>
   <g id="matplotlib.axis_2">
    <g id="ytick_1">
     <g id="line2d_10">
      <defs>
       <path d="M 0 0 
L -3.5 0 
" id="m0292c40bc4" style="stroke:#000000;stroke-width:0.8;"/>
      </defs>
      <g>
       <use style="stroke:#000000;stroke-width:0.8;" x="57.6" xlink:href="#m0292c40bc4" y="307.584"/>
      </g>
     </g>
     <g id="text_10">
      <!-- 0 -->
      <g transform="translate(44.2375 311.383219)scale(0.1 -0.1)">
       <use xlink:href="#DejaVuSans-48"/>
      </g>
     </g>
    </g>
    <g id="ytick_2">
     <g id="line2d_11">
      <g>
       <use style="stroke:#000000;stroke-width:0.8;" x="57.6" xlink:href="#m0292c40bc4" y="254.784"/>
      </g>
     </g>
     <g id="text_11">
      <!-- 10 -->
      <g transform="translate(37.875 258.583219)scale(0.1 -0.1)">
       <use xlink:href="#DejaVuSans-49"/>
       <use x="63.623047" xlink:href="#DejaVuSans-48"/>
      </g>
     </g>
    </g>
    <g id="ytick_3">
     <g id="line2d_12">
      <g>
       <use style="stroke:#000000;stroke-width:0.8;" x="57.6" xlink:href="#m0292c40bc4" y="201.984"/>
      </g>
     </g>
     <g id="text_12">
      <!-- 20 -->
      <g transform="translate(37.875 205.783219)scale(0.1 -0.1)">
       <use xlink:href="#DejaVuSans-50"/>
       <use x="63.623047" xlink:href="#DejaVuSans-48"/>
      </g>
     </g>
    </g>
    <g id="ytick_4">
     <g id="line2d_13">
      <g>
       <use style="stroke:#000000;stroke-width:0.8;" x="57.6" xlink:href="#m0292c40bc4" y="149.184"/>
      </g>
     </g>
     <g id="text_13">
      <!-- 30 -->
      <g transform="translate(37.875 152.983219)scale(0.1 -0.1)">
       <use xlink:href="#DejaVuSans-51"/>
       <use x="63.623047" xlink:href="#DejaVuSans-48"/>
      </g>
     </g>
    </g>
    <g id="ytick_5">
     <g id="line2d_14">
      <g>
       <use style="stroke:#000000;stroke-width:0.8;" x="57.6" xlink:href="#m0292c40bc4" y="96.384"/>
      </g>
     </g>
     <g id="text_14">
      <!-- 40 -->
      <g transform="translate(37.875 100.183219)scale(0.1 -0.1)">
       <use xlink:href="#DejaVuSans-52"/>
       <use x="63.623047" xlink:href="#DejaVuSans-48"/>
      </g>
     </g>
    </g>
    <g id="ytick_6">
     <g id="line2d_15">
      <g>
       <use style="stroke:#000000;stroke-width:0.8;" x="57.6" xlink:href="#m0292c40bc4" y="43.584"/>
      </g>
     </g>
     <g id="text_15">
      <!-- 50 -->
      <g transform="translate(37.875 47.383219)scale(0.1 -0.1)">
       <use xlink:href="#DejaVuSans-53"/>
       <use x="63.623047" xlink:href="#DejaVuSans-48"/>
      </g>
     </g>
    </g>
    <g id="text_16">
     <!-- count -->
     <defs>
      <path d="M 48.78125 52.59375 
L 48.78125 44.1875 
Q 44.96875 46.296875 41.140625 47.34375 
Q 37.3125 48.390625 33.40625 48.390625 
Q 24.65625 48.390625 19.8125 42.84375 
Q 14.984375 37.3125 14.984375 27.296875 
Q 14.984375 17.28125 19.8125 11.734375 
Q 24.65625 6.203125 33.40625 6.203125 
Q 37.3125 6.203125 41.140625 7.25 
Q 44.96875 8.296875 48.78125 10.40625 
L 48.78125 2.09375 
Q 45.015625 0.34375 40.984375 -0.53125 
Q 36.96875 -1.421875 32.421875 -1.421875 
Q 20.0625 -1.421875 12.78125 6.34375 
Q 5.515625 14.109375 5.515625 27.296875 
Q 5.515625 40.671875 12.859375 48.328125 
Q 20.21875 56 33.015625 56 
Q 37.15625 56 41.109375 55.140625 
Q 45.0625 54.296875 48.78125 52.59375 
z
" id="DejaVuSans-99"/>
      <path d="M 30.609375 48.390625 
Q 23.390625 48.390625 19.1875 42.75 
Q 14.984375 37.109375 14.984375 27.296875 
Q 14.984375 17.484375 19.15625 11.84375 
Q 23.34375 6.203125 30.609375 6.203125 
Q 37.796875 6.203125 41.984375 11.859375 
Q 46.1875 17.53125 46.1875 27.296875 
Q 46.1875 37.015625 41.984375 42.703125 
Q 37.796875 48.390625 30.609375 48.390625 
z
M 30.609375 56 
Q 42.328125 56 49.015625 48.375 
Q 55.71875 40.765625 55.71875 27.296875 
Q 55.71875 13.875 49.015625 6.21875 
Q 42.328125 -1.421875 30.609375 -1.421875 
Q 18.84375 -1.421875 12.171875 6.21875 
Q 5.515625 13.875 5.515625 27.296875 
Q 5.515625 40.765625 12.171875 48.375 
Q 18.84375 56 30.609375 56 
z
" id="DejaVuSans-111"/>
      <path d="M 8.5 21.578125 
L 8.5 54.6875 
L 17.484375 54.6875 
L 17.484375 21.921875 
Q 17.484375 14.15625 20.5 10.265625 
Q 23.53125 6.390625 29.59375 6.390625 
Q 36.859375 6.390625 41.078125 11.03125 
Q 45.3125 15.671875 45.3125 23.6875 
L 45.3125 54.6875 
L 54.296875 54.6875 
L 54.296875 0 
L 45.3125 0 
L 45.3125 8.40625 
Q 42.046875 3.421875 37.71875 1 
Q 33.40625 -1.421875 27.6875 -1.421875 
Q 18.265625 -1.421875 13.375 4.4375 
Q 8.5 10.296875 8.5 21.578125 
z
M 31.109375 56 
z
" id="DejaVuSans-117"/>
      <path d="M 54.890625 33.015625 
L 54.890625 0 
L 45.90625 0 
L 45.90625 32.71875 
Q 45.90625 40.484375 42.875 44.328125 
Q 39.84375 48.1875 33.796875 48.1875 
Q 26.515625 48.1875 22.3125 43.546875 
Q 18.109375 38.921875 18.109375 30.90625 
L 18.109375 0 
L 9.078125 0 
L 9.078125 54.6875 
L 18.109375 54.6875 
L 18.109375 46.1875 
Q 21.34375 51.125 25.703125 53.5625 
Q 30.078125 56 35.796875 56 
Q 45.21875 56 50.046875 50.171875 
Q 54.890625 44.34375 54.890625 33.015625 
z
" id="DejaVuSans-110"/>
      <path d="M 18.3125 70.21875 
L 18.3125 54.6875 
L 36.8125 54.6875 
L 36.8125 47.703125 
L 18.3125 47.703125 
L 18.3125 18.015625 
Q 18.3125 11.328125 20.140625 9.421875 
Q 21.96875 7.515625 27.59375 7.515625 
L 36.8125 7.515625 
L 36.8125 0 
L 27.59375 0 
Q 17.1875 0 13.234375 3.875 
Q 9.28125 7.765625 9.28125 18.015625 
L 9.28125 47.703125 
L 2.6875 47.703125 
L 2.6875 54.6875 
L 9.28125 54.6875 
L 9.28125 70.21875 
z
" id="DejaVuSans-116"/>
     </defs>
     <g transform="translate(31.795313 188.63425)rotate(-90)scale(0.1 -0.1)">
      <use xlink:href="#DejaVuSans-99"/>
      <use x="54.980469" xlink:href="#DejaVuSans-111"/>
      <use x="116.162109" xlink:href="#DejaVuSans-117"/>
      <use x="179.541016" xlink:href="#DejaVuSans-110"/>
      <use x="242.919922" xlink:href="#DejaVuSans-116"/>
     </g>
    </g>
   </g>
   <g id="patch_80">
    <path d="M 57.6 307.584 
L 57.6 41.472 
" style="fill:none;stroke:#000000;stroke-linecap:square;stroke-linejoin:miter;stroke-width:0.8;"/>
   </g>
   <g id="patch_81">
    <path d="M 414.72 307.584 
L 414.72 41.472 
" style="fill:none;stroke:#000000;stroke-linecap:square;stroke-linejoin:miter;stroke-width:0.8;"/>
   </g>
   <g id="patch_82">
    <path d="M 57.6 307.584 
L 414.72 307.584 
" style="fill:none;stroke:#000000;stroke-linecap:square;stroke-linejoin:miter;stroke-width:0.8;"/>
   </g>
   <g id="patch_83">
    <path d="M 57.6 41.472 
L 414.72 41.472 
" style="fill:none;stroke:#000000;stroke-linecap:square;stroke-linejoin:miter;stroke-width:0.8;"/>
   </g>
   <g id="text_17">
    <!-- Samples -->
    <defs>
     <path d="M 53.515625 70.515625 
L 53.515625 60.890625 
Q 47.90625 63.578125 42.921875 64.890625 
Q 37.9375 66.21875 33.296875 66.21875 
Q 25.25 66.21875 20.875 63.09375 
Q 16.5 59.96875 16.5 54.203125 
Q 16.5 49.359375 19.40625 46.890625 
Q 22.3125 44.4375 30.421875 42.921875 
L 36.375 41.703125 
Q 47.40625 39.59375 52.65625 34.296875 
Q 57.90625 29 57.90625 20.125 
Q 57.90625 9.515625 50.796875 4.046875 
Q 43.703125 -1.421875 29.984375 -1.421875 
Q 24.8125 -1.421875 18.96875 -0.25 
Q 13.140625 0.921875 6.890625 3.21875 
L 6.890625 13.375 
Q 12.890625 10.015625 18.65625 8.296875 
Q 24.421875 6.59375 29.984375 6.59375 
Q 38.421875 6.59375 43.015625 9.90625 
Q 47.609375 13.234375 47.609375 19.390625 
Q 47.609375 24.75 44.3125 27.78125 
Q 41.015625 30.8125 33.5 32.328125 
L 27.484375 33.5 
Q 16.453125 35.6875 11.515625 40.375 
Q 6.59375 45.0625 6.59375 53.421875 
Q 6.59375 63.09375 13.40625 68.65625 
Q 20.21875 74.21875 32.171875 74.21875 
Q 37.3125 74.21875 42.625 73.28125 
Q 47.953125 72.359375 53.515625 70.515625 
z
" id="DejaVuSans-83"/>
     <path d="M 34.28125 27.484375 
Q 23.390625 27.484375 19.1875 25 
Q 14.984375 22.515625 14.984375 16.5 
Q 14.984375 11.71875 18.140625 8.90625 
Q 21.296875 6.109375 26.703125 6.109375 
Q 34.1875 6.109375 38.703125 11.40625 
Q 43.21875 16.703125 43.21875 25.484375 
L 43.21875 27.484375 
z
M 52.203125 31.203125 
L 52.203125 0 
L 43.21875 0 
L 43.21875 8.296875 
Q 40.140625 3.328125 35.546875 0.953125 
Q 30.953125 -1.421875 24.3125 -1.421875 
Q 15.921875 -1.421875 10.953125 3.296875 
Q 6 8.015625 6 15.921875 
Q 6 25.140625 12.171875 29.828125 
Q 18.359375 34.515625 30.609375 34.515625 
L 43.21875 34.515625 
L 43.21875 35.40625 
Q 43.21875 41.609375 39.140625 45 
Q 35.0625 48.390625 27.6875 48.390625 
Q 23 48.390625 18.546875 47.265625 
Q 14.109375 46.140625 10.015625 43.890625 
L 10.015625 52.203125 
Q 14.9375 54.109375 19.578125 55.046875 
Q 24.21875 56 28.609375 56 
Q 40.484375 56 46.34375 49.84375 
Q 52.203125 43.703125 52.203125 31.203125 
z
" id="DejaVuSans-97"/>
     <path d="M 52 44.1875 
Q 55.375 50.25 60.0625 53.125 
Q 64.75 56 71.09375 56 
Q 79.640625 56 84.28125 50.015625 
Q 88.921875 44.046875 88.921875 33.015625 
L 88.921875 0 
L 79.890625 0 
L 79.890625 32.71875 
Q 79.890625 40.578125 77.09375 44.375 
Q 74.3125 48.1875 68.609375 48.1875 
Q 61.625 48.1875 57.5625 43.546875 
Q 53.515625 38.921875 53.515625 30.90625 
L 53.515625 0 
L 44.484375 0 
L 44.484375 32.71875 
Q 44.484375 40.625 41.703125 44.40625 
Q 38.921875 48.1875 33.109375 48.1875 
Q 26.21875 48.1875 22.15625 43.53125 
Q 18.109375 38.875 18.109375 30.90625 
L 18.109375 0 
L 9.078125 0 
L 9.078125 54.6875 
L 18.109375 54.6875 
L 18.109375 46.1875 
Q 21.1875 51.21875 25.484375 53.609375 
Q 29.78125 56 35.6875 56 
Q 41.65625 56 45.828125 52.96875 
Q 50 49.953125 52 44.1875 
z
" id="DejaVuSans-109"/>
     <path d="M 18.109375 8.203125 
L 18.109375 -20.796875 
L 9.078125 -20.796875 
L 9.078125 54.6875 
L 18.109375 54.6875 
L 18.109375 46.390625 
Q 20.953125 51.265625 25.265625 53.625 
Q 29.59375 56 35.59375 56 
Q 45.5625 56 51.78125 48.09375 
Q 58.015625 40.1875 58.015625 27.296875 
Q 58.015625 14.40625 51.78125 6.484375 
Q 45.5625 -1.421875 35.59375 -1.421875 
Q 29.59375 -1.421875 25.265625 0.953125 
Q 20.953125 3.328125 18.109375 8.203125 
z
M 48.6875 27.296875 
Q 48.6875 37.203125 44.609375 42.84375 
Q 40.53125 48.484375 33.40625 48.484375 
Q 26.265625 48.484375 22.1875 42.84375 
Q 18.109375 37.203125 18.109375 27.296875 
Q 18.109375 17.390625 22.1875 11.75 
Q 26.265625 6.109375 33.40625 6.109375 
Q 40.53125 6.109375 44.609375 11.75 
Q 48.6875 17.390625 48.6875 27.296875 
z
" id="DejaVuSans-112"/>
     <path d="M 9.421875 75.984375 
L 18.40625 75.984375 
L 18.40625 0 
L 9.421875 0 
z
" id="DejaVuSans-108"/>
     <path d="M 56.203125 29.59375 
L 56.203125 25.203125 
L 14.890625 25.203125 
Q 15.484375 15.921875 20.484375 11.0625 
Q 25.484375 6.203125 34.421875 6.203125 
Q 39.59375 6.203125 44.453125 7.46875 
Q 49.3125 8.734375 54.109375 11.28125 
L 54.109375 2.78125 
Q 49.265625 0.734375 44.1875 -0.34375 
Q 39.109375 -1.421875 33.890625 -1.421875 
Q 20.796875 -1.421875 13.15625 6.1875 
Q 5.515625 13.8125 5.515625 26.8125 
Q 5.515625 40.234375 12.765625 48.109375 
Q 20.015625 56 32.328125 56 
Q 43.359375 56 49.78125 48.890625 
Q 56.203125 41.796875 56.203125 29.59375 
z
M 47.21875 32.234375 
Q 47.125 39.59375 43.09375 43.984375 
Q 39.0625 48.390625 32.421875 48.390625 
Q 24.90625 48.390625 20.390625 44.140625 
Q 15.875 39.890625 15.1875 32.171875 
z
" id="DejaVuSans-101"/>
     <path d="M 44.28125 53.078125 
L 44.28125 44.578125 
Q 40.484375 46.53125 36.375 47.5 
Q 32.28125 48.484375 27.875 48.484375 
Q 21.1875 48.484375 17.84375 46.4375 
Q 14.5 44.390625 14.5 40.28125 
Q 14.5 37.15625 16.890625 35.375 
Q 19.28125 33.59375 26.515625 31.984375 
L 29.59375 31.296875 
Q 39.15625 29.25 43.1875 25.515625 
Q 47.21875 21.78125 47.21875 15.09375 
Q 47.21875 7.46875 41.1875 3.015625 
Q 35.15625 -1.421875 24.609375 -1.421875 
Q 20.21875 -1.421875 15.453125 -0.5625 
Q 10.6875 0.296875 5.421875 2 
L 5.421875 11.28125 
Q 10.40625 8.6875 15.234375 7.390625 
Q 20.0625 6.109375 24.8125 6.109375 
Q 31.15625 6.109375 34.5625 8.28125 
Q 37.984375 10.453125 37.984375 14.40625 
Q 37.984375 18.0625 35.515625 20.015625 
Q 33.0625 21.96875 24.703125 23.78125 
L 21.578125 24.515625 
Q 13.234375 26.265625 9.515625 29.90625 
Q 5.8125 33.546875 5.8125 39.890625 
Q 5.8125 47.609375 11.28125 51.796875 
Q 16.75 56 26.8125 56 
Q 31.78125 56 36.171875 55.265625 
Q 40.578125 54.546875 44.28125 53.078125 
z
" id="DejaVuSans-115"/>
    </defs>
    <g transform="translate(210.53625 35.472)scale(0.12 -0.12)">
     <use xlink:href="#DejaVuSans-83"/>
     <use x="63.476562" xlink:href="#DejaVuSans-97"/>
     <use x="124.755859" xlink:href="#DejaVuSans-109"/>
     <use x="222.167969" xlink:href="#DejaVuSans-112"/>
     <use x="285.644531" xlink:href="#DejaVuSans-108"/>
     <use x="313.427734" xlink:href="#DejaVuSans-101"/>
     <use x="374.951172" xlink:href="#DejaVuSans-115"/>
    </g>
   </g>
  </g>
 </g>
 <defs>
  <clipPath id="pd7763edb19">
   <rect height="266.112" width="357.12" x="57.6" y="41.472"/>
  </clipPath>
 </defs>
</svg>
